<svg version="1.1" id="Layer_1" xmlns="http://www.w3.org/2000/svg" xmlns:xlink="http://www.w3.org/1999/xlink" x="0px" y="0px"
	 width="100%" viewBox="0 0 1024 1024" enable-background="new 0 0 1024 1024" xml:space="preserve">
<path fill="#000000" opacity="1.000000" stroke="none" 
	d="
M613.946350,404.105042 
	C637.521606,439.743225 660.518066,475.529968 675.594604,515.207886 
	C702.026245,584.769348 690.312012,648.433411 640.584900,704.173584 
	C613.324097,734.730835 578.749939,753.103699 538.293274,758.985229 
	C495.791931,765.164062 456.048615,756.177490 420.094116,732.541809 
	C374.998016,702.896729 348.055145,660.920532 340.127350,607.738647 
	C334.119659,567.437317 342.021393,529.140625 360.704132,492.652924 
	C379.438080,456.065216 401.773743,421.781036 424.126526,387.435486 
	C444.384735,356.308289 465.696381,325.839203 483.854645,293.384766 
	C493.782471,275.640625 502.743744,257.403656 510.400757,238.547577 
	C511.202606,236.573029 511.760010,234.461060 513.138062,232.958984 
	C514.430969,232.938202 514.876587,233.607605 515.182922,234.409348 
	C533.109924,281.329163 560.452271,322.969635 588.043579,364.478485 
	C596.712402,377.520020 605.182373,390.693787 613.946350,404.105042 
M449.094513,461.560913 
	C441.076019,473.629608 432.876312,485.578918 425.709900,498.195770 
	C412.924286,520.705505 401.045959,543.488831 397.749969,569.776001 
	C394.697388,594.121643 398.063538,617.395020 409.415070,639.042725 
	C434.787994,687.429626 485.926483,711.079956 539.282654,699.552979 
	C591.631348,688.243652 626.464783,642.553284 630.548950,592.287842 
	C632.297058,570.773193 627.231689,550.299683 618.524414,530.657227 
	C607.129883,504.952362 591.824524,481.566467 576.366638,458.207428 
	C558.817688,431.688416 539.719727,406.157867 524.531372,378.111633 
	C521.077698,371.734131 517.792847,365.265198 514.418213,358.815277 
	C512.323608,359.843384 512.100281,361.646515 511.341278,363.053009 
	C507.150604,370.818695 503.253754,378.752869 498.820770,386.376099 
	C483.814575,412.181519 465.917236,436.086212 449.094513,461.560913 
M528.863342,320.392517 
	C530.797913,317.201599 533.841431,314.668152 535.129700,310.066620 
	C526.002380,310.965576 517.500610,311.716522 508.621460,313.764008 
	C510.447174,322.148071 511.962860,330.312012 515.151794,338.540558 
	C520.434753,332.809937 524.201660,326.709320 528.863342,320.392517 
M557.036804,728.468567 
	C562.483459,730.265991 567.930115,732.063477 574.261108,734.152832 
	C572.688171,722.895569 571.253296,712.627014 569.624512,700.970215 
	C563.093567,710.082947 557.550598,717.817078 552.232666,725.237305 
	C553.387146,727.505859 555.006409,727.606873 557.036804,728.468567 
M619.050293,659.023804 
	C615.175537,660.409668 618.553833,661.349670 619.389038,661.875793 
	C625.697571,665.849731 632.072998,669.719910 638.484497,673.526245 
	C639.958862,674.401489 641.252075,676.045410 643.829712,675.174622 
	C644.172058,667.790344 643.075562,660.443787 642.197998,652.634033 
	C634.314331,654.781616 626.993408,656.775879 619.050293,659.023804 
M613.158630,443.750549 
	C613.953491,440.448944 616.173950,437.536102 616.096252,433.574554 
	C607.072083,433.167206 598.298035,432.771179 588.279358,432.318939 
	C595.496826,440.732971 601.781494,448.059631 608.341003,455.706635 
	C610.920105,451.793671 611.401611,447.932098 613.158630,443.750549 
M634.731201,487.328583 
	C635.909241,482.076447 637.087341,476.824310 638.405640,470.947052 
	C628.101624,475.560883 618.488831,479.865234 608.875977,484.169586 
	C615.395325,487.536041 621.861389,489.491638 628.188660,491.823853 
	C632.132202,493.277435 634.269775,492.481445 634.731201,487.328583 
M636.771179,464.406342 
	C634.378601,460.920624 633.039978,456.707764 629.305115,453.379272 
	C622.354553,462.545898 615.588318,471.469391 607.889832,481.622375 
	C618.249695,476.971497 627.245361,472.883484 636.289917,468.906555 
	C638.621277,467.881439 638.094971,466.550415 636.771179,464.406342 
M470.470215,734.019714 
	C473.036530,736.144287 474.794067,739.243347 478.328918,741.051819 
	C479.157379,731.032043 479.932892,721.652771 480.828827,710.817139 
	C476.210449,714.368896 472.944611,716.863953 469.696320,719.381714 
	C461.610626,725.648865 461.614319,725.652649 468.899506,732.477173 
	C469.262299,732.817017 469.605347,733.177917 470.470215,734.019714 
M622.451050,507.778137 
	C625.347656,503.873260 628.903625,500.430084 631.432861,495.729828 
	C623.196106,493.047089 615.493774,490.538391 607.791382,488.029694 
	C607.559570,488.388794 607.327698,488.747864 607.095825,489.106964 
	C610.947449,496.363312 614.799072,503.619690 618.572266,510.728333 
	C620.636414,510.584259 621.085999,509.130859 622.451050,507.778137 
M386.264465,530.068054 
	C389.607178,530.665771 392.799194,532.302612 396.993103,531.647949 
	C394.685547,523.211853 392.547577,515.039734 389.083282,505.982422 
	C384.923553,513.926514 381.311554,520.824646 377.660248,527.797852 
	C380.564453,529.286621 383.017578,529.585754 386.264465,530.068054 
M393.769287,686.140320 
	C397.955078,679.188110 402.140900,672.235901 406.326691,665.283752 
	C405.925781,664.914246 405.524841,664.544800 405.123901,664.175293 
	C397.202789,668.650269 389.281677,673.125244 381.073669,677.762268 
	C384.250488,682.655823 386.991821,686.692322 390.648102,689.872559 
	C392.343475,689.185242 392.691467,687.798096 393.769287,686.140320 
M449.625641,704.066895 
	C452.438660,702.522705 455.251648,700.978577 458.709656,699.080322 
	C450.647491,694.532776 443.337921,690.666748 435.880859,684.955444 
	C437.186523,693.669800 438.320465,701.237915 439.476929,708.956421 
	C443.480255,708.140686 445.950623,705.700745 449.625641,704.066895 
M439.891968,459.349579 
	C442.480072,455.186920 445.919067,451.544952 448.073517,446.395233 
	C440.245026,445.178345 432.846893,444.473969 424.165955,444.275818 
	C428.439941,451.597351 432.107544,457.880157 436.113495,464.742523 
	C437.642944,462.600677 438.591339,461.272522 439.891968,459.349579 
M372.788483,573.809326 
	C371.235870,572.767395 369.969238,571.090210 367.325470,571.332764 
	C368.504700,579.492798 369.645599,587.387756 370.930237,596.277283 
	C376.679260,592.249817 381.596985,588.804688 386.970734,585.040039 
	C382.655334,580.371948 377.597168,577.788391 372.788483,573.809326 
M596.373657,697.323242 
	C596.295166,698.995483 596.828064,700.240723 598.637878,700.627136 
	C604.898071,701.963684 611.156738,703.307068 618.734131,704.930115 
	C611.831055,696.158936 606.192871,688.074341 598.917175,680.386108 
	C597.976929,686.437439 597.194580,691.472595 596.373657,697.323242 
M655.901917,544.629395 
	C655.821472,543.708496 656.489502,542.669434 655.041504,541.541199 
	C649.340881,545.641418 643.526062,549.823730 636.756042,554.693115 
	C643.237122,558.544434 648.893738,561.905884 655.845215,566.036743 
	C655.845215,558.198914 655.845215,551.800598 655.901917,544.629395 
M652.398743,624.617371 
	C650.431763,631.932312 648.464783,639.247253 646.122192,647.959229 
	C653.982605,643.623108 660.612366,639.965881 667.783569,636.009949 
	C663.148804,631.420227 659.259338,627.582275 655.388000,623.726257 
	C654.297119,622.639709 653.297485,621.874512 652.398743,624.617371 
M544.051331,353.455078 
	C547.363220,356.301727 549.420837,360.412598 553.686768,363.382477 
	C554.745972,357.056396 555.733887,351.375854 556.632324,345.681244 
	C556.989258,343.418945 555.977234,342.151978 553.585327,342.339569 
	C547.739380,342.798035 541.896606,343.297913 535.165527,343.854431 
	C538.430359,347.387604 540.996887,350.165100 544.051331,353.455078 
M395.364563,542.259521 
	C395.547241,540.848083 396.779663,539.588379 395.724091,537.387939 
	C388.022278,540.326355 380.322113,543.264160 372.621918,546.201965 
	C372.618134,546.728027 372.614319,547.254028 372.610504,547.780029 
	C378.621185,550.954651 384.631836,554.129272 391.069794,557.529541 
	C392.551880,552.173645 393.824646,547.574219 395.364563,542.259521 
M602.674988,416.349030 
	C598.241577,420.523132 593.808105,424.697235 588.322815,429.861603 
	C598.041260,429.344452 606.441284,431.300262 616.086914,430.273468 
	C612.692261,424.931824 609.830811,420.340240 606.869568,415.813934 
	C605.705322,414.034393 604.377625,414.670624 602.674988,416.349030 
M425.556488,437.780487 
	C424.093567,439.997375 424.923065,441.313324 427.322174,441.536926 
	C433.830750,442.143555 440.354279,442.589630 448.005249,443.187958 
	C443.040863,436.215607 438.780457,430.231995 434.230835,423.842163 
	C430.322540,428.322449 428.488403,432.982605 425.556488,437.780487 
M467.312378,407.168488 
	C468.480042,409.086975 469.319946,411.320801 472.058716,412.224701 
	C475.544739,407.684998 478.671783,403.102844 481.597382,397.705994 
	C474.271332,395.008850 467.079346,393.947021 458.463867,392.112183 
	C461.839630,397.826080 464.412262,402.180634 467.312378,407.168488 
M649.940430,623.749268 
	C650.146606,622.907959 650.270264,621.752136 648.990417,622.323364 
	C643.838989,624.622437 638.750427,627.067200 633.689331,629.560852 
	C632.135620,630.326355 632.303162,631.726929 633.138367,632.969177 
	C636.257935,637.609131 639.427429,642.215515 643.255554,647.827454 
	C645.641663,639.258911 647.716431,631.808105 649.940430,623.749268 
M565.692200,701.557495 
	C565.694092,701.391113 565.746155,701.201965 565.683777,701.064880 
	C565.621887,700.928955 565.406128,700.728577 565.323608,700.755798 
	C558.702820,702.937500 552.086487,705.132568 545.474976,707.342163 
	C543.449463,708.019104 543.017090,709.374756 543.877747,711.256287 
	C545.775269,715.404602 547.662781,719.557556 549.759216,724.158264 
	C555.295044,716.374084 560.389648,709.210388 565.692200,701.557495 
M502.464569,736.178589 
	C504.153351,735.483154 506.375061,734.989136 504.526337,732.446411 
	C501.728516,728.598145 499.418793,724.365051 495.406250,720.409851 
	C491.169739,727.655273 487.164764,734.504822 483.159790,741.354370 
	C483.437012,741.671448 483.714264,741.988586 483.991486,742.305725 
	C489.923065,740.356689 495.854675,738.407654 502.464569,736.178589 
M421.221283,484.520721 
	C421.936707,484.130554 422.062653,483.449585 421.760864,482.836029 
	C418.804932,476.826233 415.806702,470.837219 412.379242,463.956451 
	C408.737976,470.375244 405.623871,475.864807 402.126251,482.030396 
	C408.872620,482.977661 414.722260,483.799011 421.221283,484.520721 
M381.370361,564.098145 
	C377.632019,565.432617 373.379883,565.426147 369.767212,568.249939 
	C375.879456,572.281494 380.866516,577.139832 387.861420,580.825867 
	C388.678955,574.102661 389.403839,568.141418 390.150269,562.002991 
	C386.988831,561.874634 384.665009,563.340210 381.370361,564.098145 
M655.040222,599.843262 
	C651.727539,593.168091 644.930542,590.239502 639.743591,584.337341 
	C638.968628,592.401001 638.314697,599.204407 637.588867,606.756836 
	C643.770996,604.344482 649.169434,602.237976 655.040222,599.843262 
M565.711365,425.357208 
	C572.072327,422.292786 575.060425,415.833466 581.324402,410.902435 
	C572.049805,410.064240 564.254028,411.270569 555.047119,411.215607 
	C558.941956,416.548767 562.042969,420.794922 565.711365,425.357208 
M644.630310,524.942139 
	C648.411804,528.337158 652.193298,531.732239 656.718628,535.795105 
	C658.690369,529.270935 660.397644,523.621948 662.361877,517.122803 
	C654.571777,518.313782 647.870972,519.338196 640.310974,520.494019 
	C642.106995,522.385132 643.110413,523.441711 644.630310,524.942139 
M391.512207,655.623840 
	C397.002869,655.465210 402.471649,657.132568 408.782745,656.398376 
	C405.309113,649.709167 402.243378,643.805420 398.865417,637.300415 
	C395.509094,642.704834 392.577301,647.476807 389.587769,652.212280 
	C388.521667,653.901062 388.801544,654.977478 391.512207,655.623840 
M542.026672,362.280762 
	C544.455505,363.086792 546.884338,363.892853 549.313171,364.698883 
	C543.970886,357.582764 538.587341,350.948944 531.934814,344.822113 
	C529.035339,348.770935 526.625183,352.053345 523.638123,356.121399 
	C530.040283,358.255493 535.667969,360.131439 542.026672,362.280762 
M565.580811,407.812958 
	C570.470825,407.812958 575.360840,407.812958 581.604431,407.812958 
	C575.528931,402.276855 570.574585,397.762329 565.064087,392.740997 
	C561.676636,397.920807 558.761414,402.378479 555.597046,407.217163 
	C559.067078,408.343597 561.877197,407.675293 565.580811,407.812958 
M458.213409,721.660706 
	C458.754669,715.524902 460.199615,709.416443 459.355774,702.613708 
	C452.733856,705.363953 447.160522,708.357727 440.994385,712.279602 
	C447.276245,715.534058 451.686035,719.987305 458.213409,721.660706 
M595.523254,444.953796 
	C592.364380,441.639740 590.137329,437.443878 585.991089,434.581482 
	C583.581421,438.401520 583.182068,442.594757 581.891235,446.460968 
	C581.441406,447.808441 582.010986,448.857544 583.271606,449.240479 
	C589.807617,451.226044 596.370728,453.122406 602.924377,455.049866 
	C603.077515,454.752380 603.230591,454.454865 603.383728,454.157349 
	C600.916809,451.270264 598.449890,448.383148 595.523254,444.953796 
M462.770996,721.381714 
	C468.298523,717.012146 473.826050,712.642639 480.192505,707.609924 
	C473.934143,705.290833 468.650085,703.332764 462.398468,701.016113 
	C462.795654,708.474121 460.887299,714.942566 462.770996,721.381714 
M370.290802,504.957520 
	C370.654144,511.843994 373.354980,518.049011 375.549896,525.689087 
	C379.676392,518.030334 383.130371,511.619751 386.920135,504.585968 
	C380.782104,504.585968 375.844757,504.585968 370.290802,504.957520 
M611.940186,691.593811 
	C614.552673,694.930176 616.864075,698.530212 620.471191,701.723938 
	C620.843567,696.235779 621.169983,691.311890 621.515625,686.389404 
	C621.639038,684.631104 620.841003,683.501465 619.185913,683.050110 
	C613.994995,681.634521 608.835938,680.038940 602.718445,679.463074 
	C605.291626,684.213196 608.587891,687.484436 611.940186,691.593811 
M474.592712,381.927429 
	C473.521698,380.326111 473.305969,378.115570 471.037201,377.072815 
	C466.364532,380.063843 462.678223,384.156311 458.435242,388.696503 
	C466.181671,391.034821 473.249268,392.569275 481.363831,393.828766 
	C478.854858,389.429169 476.894775,385.992035 474.592712,381.927429 
M558.644531,379.770905 
	C557.255371,376.855438 555.866211,373.939972 554.103455,370.240509 
	C550.233643,376.628357 546.883423,382.158691 543.066650,388.458984 
	C549.946228,388.458984 555.768066,388.458984 561.877014,388.458984 
	C561.636658,385.339233 560.056152,382.974731 558.644531,379.770905 
M527.120239,327.558105 
	C524.128174,331.645538 521.136108,335.732941 517.992554,340.027405 
	C520.940430,341.225067 523.452148,340.527679 525.858398,340.858398 
	C529.712891,341.388184 531.582092,339.888977 532.210815,335.912323 
	C533.291809,329.074738 534.855835,322.313477 536.488159,314.167297 
	C532.996521,319.158722 530.264221,323.064697 527.120239,327.558105 
M492.439850,339.185822 
	C492.984253,338.064758 494.258972,337.153198 493.307953,335.301544 
	C487.890961,334.658966 482.430328,332.803711 475.931854,333.208374 
	C478.524994,339.861481 480.366425,346.098785 483.888214,352.261261 
	C486.829590,347.741516 489.432434,343.741852 492.439850,339.185822 
M578.161682,383.671448 
	C579.831238,382.756592 582.099243,382.865845 583.372986,380.406769 
	C580.267578,375.597382 577.075684,370.654083 573.883850,365.710815 
	C571.122131,373.297028 568.322632,380.121033 567.297974,388.069763 
	C571.097839,386.510590 574.275757,385.206635 578.161682,383.671448 
M581.366882,385.331909 
	C577.086426,387.207947 572.500366,388.461060 567.786682,391.461090 
	C572.833984,396.080414 577.305359,400.172577 582.268616,404.714996 
	C584.524353,397.926422 583.224365,392.002106 584.459167,386.348206 
	C584.837219,384.617035 583.221008,384.841156 581.366882,385.331909 
M618.133850,668.664062 
	C619.564941,671.663635 621.006409,674.658325 622.422974,677.664795 
	C623.159973,679.228821 624.032410,680.755249 626.012573,680.619995 
	C631.139954,680.269836 636.257751,679.778992 642.465759,679.252136 
	C633.643372,673.940125 625.898804,669.277100 618.257202,664.676086 
	C616.938782,666.229675 617.447693,667.140198 618.133850,668.664062 
M395.185120,666.663757 
	C398.216827,664.455750 402.050903,663.440735 405.770142,659.557312 
	C398.699554,659.638428 392.539062,656.640747 387.212433,658.751221 
	C383.713287,660.137634 384.169403,666.398132 382.759338,670.441101 
	C382.413208,671.433594 381.601471,672.443542 382.268463,673.782288 
	C386.403900,671.500366 390.472260,669.255432 395.185120,666.663757 
M637.342285,513.273560 
	C637.562500,514.333862 638.006409,515.496765 639.187805,514.335327 
	C643.855286,509.746704 648.401367,505.034576 653.654480,499.695343 
	C647.184082,498.604065 641.768738,497.690735 635.776550,496.680115 
	C636.327087,502.446594 636.810486,507.509552 637.342285,513.273560 
M361.028870,587.461914 
	C363.018890,589.503357 365.008942,591.544861 366.998962,593.586365 
	C366.095459,585.718201 366.500916,578.065247 364.086273,570.147034 
	C359.853821,572.882263 356.203796,575.241028 352.357208,577.726868 
	C354.721558,581.653015 357.945496,584.032166 361.028870,587.461914 
M503.210388,293.553223 
	C509.274078,294.443878 515.337769,295.334564 522.222473,296.345856 
	C516.376587,290.422791 510.776031,285.426605 504.471741,280.540863 
	C502.110901,284.587128 499.981445,288.051361 498.891785,292.283752 
	C500.255127,292.710236 501.351990,293.053375 503.210388,293.553223 
M655.948669,515.557190 
	C657.931702,514.925659 660.238464,515.409119 662.294617,513.686401 
	C660.518982,509.544678 659.135437,505.252899 657.309143,502.507111 
	C651.655823,507.327057 646.297791,511.895203 640.939758,516.463318 
	C641.110596,516.723694 641.281433,516.984009 641.452271,517.244385 
	C646.001892,516.702881 650.551453,516.161377 655.948669,515.557190 
M374.958679,624.171692 
	C375.600647,628.411926 374.670776,632.788086 376.056335,637.670898 
	C382.352234,636.282104 388.489716,634.928223 395.983582,633.275146 
	C388.912994,629.476990 383.216339,626.396057 377.492554,623.366333 
	C376.707184,622.950684 375.735992,622.112732 374.958679,624.171692 
M425.299347,451.262726 
	C423.970184,449.666504 423.592224,447.290619 421.013977,446.183807 
	C419.283203,449.833557 417.601654,453.420410 415.882660,456.989288 
	C414.808502,459.219391 415.646057,460.408905 417.872284,461.036194 
	C422.780762,462.419250 427.673187,463.859131 433.479431,465.538239 
	C430.562073,460.448914 428.106873,456.165863 425.299347,451.262726 
M379.314209,561.751526 
	C381.525024,560.643372 384.516022,561.115356 386.552429,558.217102 
	C380.547424,555.167664 374.916687,552.308289 368.605652,549.103455 
	C368.325500,554.978271 368.102570,559.652710 367.846680,565.018982 
	C371.932831,563.852905 375.244202,562.907959 379.314209,561.751526 
M448.258392,439.107849 
	C449.209229,440.126007 449.527802,441.878876 451.600433,441.864868 
	C454.107391,438.542603 456.871887,435.308411 458.642670,430.692413 
	C452.084442,428.474335 445.801117,426.349213 438.443939,423.860901 
	C441.361816,429.944977 444.843384,434.107880 448.258392,439.107849 
M638.595886,523.285522 
	C637.839905,522.865601 636.854980,522.459900 636.401794,523.362427 
	C634.513977,527.121704 632.072632,530.698975 631.549255,535.590027 
	C638.864380,535.954712 645.712769,536.296082 653.877869,536.703125 
	C648.273438,531.742920 643.703003,527.697876 638.595886,523.285522 
M663.729309,541.884644 
	C662.182556,541.503418 660.826294,540.126221 658.717651,541.083862 
	C658.717651,548.044373 658.717651,555.097168 658.717651,563.196106 
	C663.149353,556.538086 667.875977,551.428833 671.316162,544.975586 
	C668.696960,543.906006 666.558105,543.032593 663.729309,541.884644 
M524.850037,710.969543 
	C523.910217,711.521118 522.534973,710.754211 521.643494,712.090820 
	C529.667908,716.303284 537.643677,720.370728 546.331665,723.768066 
	C546.006714,722.840759 545.887756,722.352783 545.673340,721.911133 
	C537.942566,705.984558 543.368713,708.829407 524.850037,710.969543 
M655.221375,663.818604 
	C656.095825,661.748779 658.070679,660.102966 657.694458,657.304871 
	C654.015381,655.639404 650.306702,654.002380 645.479675,653.588501 
	C645.892456,660.770996 645.941284,667.612793 647.711975,675.789795 
	C650.639038,671.136230 652.746033,667.786438 655.221375,663.818604 
M397.546326,460.323883 
	C399.097321,466.014008 398.802582,472.083649 401.056488,478.097321 
	C403.808502,473.445404 406.366791,469.180511 408.857727,464.876617 
	C409.676758,463.461426 410.887543,461.717407 408.715332,460.593994 
	C405.136169,458.742950 401.840881,456.205475 397.424683,455.172729 
	C397.424683,456.927673 397.424683,458.237854 397.546326,460.323883 
M382.340729,602.763306 
	C380.389893,607.024475 378.010712,611.118652 376.658752,616.496094 
	C381.115967,615.033386 384.862976,613.813721 388.602325,612.570923 
	C389.825226,612.164368 390.647705,611.345520 390.444275,609.986328 
	C389.624359,604.507996 388.742615,599.038940 387.663696,592.164856 
	C385.595947,596.283752 384.136383,599.191162 382.340729,602.763306 
M413.550079,496.646057 
	C409.814301,493.419220 406.078552,490.192352 401.530853,486.264191 
	C403.564941,495.656036 405.367920,503.980774 407.406830,513.394897 
	C410.193420,508.300385 412.416626,504.261536 414.611328,500.207275 
	C415.242615,499.041077 415.087708,497.966797 413.550079,496.646057 
M618.231506,437.524109 
	C616.135620,443.630188 614.039795,449.736237 611.658264,456.674500 
	C617.689209,454.212006 622.647217,452.187592 627.809021,450.079926 
	C625.747131,445.023743 622.956726,441.146393 620.397766,437.145966 
	C619.944031,436.436646 619.192749,435.934143 618.231506,437.524109 
M417.082153,463.955658 
	C416.718201,464.192688 416.013092,464.589203 416.038757,464.644135 
	C418.670685,470.275269 421.357697,475.880615 424.418549,482.275482 
	C428.287048,477.574615 431.011139,473.583557 433.329315,468.540833 
	C427.824493,466.951660 422.756042,465.488464 417.082153,463.955658 
M475.528046,376.703094 
	C477.344971,382.665375 480.894409,387.647125 484.260315,393.949829 
	C487.107574,388.140015 490.901581,384.323883 492.323975,378.803314 
	C486.497040,377.866699 481.389832,376.383606 475.528046,376.703094 
M485.750092,711.379761 
	C484.423065,710.893311 483.812805,711.725647 483.708160,712.771484 
	C482.884491,721.002808 482.135101,729.241638 481.362823,737.478149 
	C484.510803,733.736938 486.713531,729.870422 488.959534,726.029175 
	C494.546753,716.473511 494.709045,718.503845 485.750092,711.379761 
M572.509094,704.977844 
	C574.605713,713.080566 574.404968,721.617249 576.972961,730.174316 
	C579.465942,727.883118 580.380493,725.228394 581.707581,722.856140 
	C582.742249,721.006470 584.579285,719.096191 583.366333,716.929504 
	C580.467346,711.751221 577.004578,706.935486 572.613647,701.882935 
	C572.513245,703.361633 572.480103,703.850037 572.509094,704.977844 
M605.692139,704.960693 
	C603.150208,704.247131 600.582397,703.839600 597.472473,704.050659 
	C599.766846,709.241943 602.208740,713.837219 605.379089,718.465149 
	C610.229980,715.468140 614.237549,712.071472 618.695801,707.996094 
	C613.901978,706.884399 610.191956,706.024048 605.692139,704.960693 
M559.775635,395.599670 
	C560.276367,394.284729 561.901917,393.464447 561.488586,391.428192 
	C555.618103,391.630829 549.744629,390.953217 543.481567,391.865753 
	C546.130188,397.306183 548.980042,401.866089 552.630127,406.697815 
	C555.153748,402.803955 557.299377,399.493347 559.775635,395.599670 
M383.167053,651.060791 
	C383.751129,651.828125 384.099792,652.861694 385.740997,652.994690 
	C389.020782,647.815247 392.403076,642.473938 396.284851,636.343811 
	C389.401917,637.850464 383.357269,638.341370 377.315674,640.576294 
	C378.652832,644.591187 380.787476,647.518982 383.167053,651.060791 
M605.353882,670.763367 
	C604.448792,672.416443 602.253296,673.300476 602.358459,676.150635 
	C607.897644,677.374939 613.445923,678.601257 620.143738,680.081726 
	C617.759888,673.432861 615.275940,668.398682 612.203857,662.945435 
	C609.711792,665.792908 607.762939,668.019592 605.353882,670.763367 
M467.933105,367.040894 
	C466.150208,362.011353 465.344116,356.631165 462.762390,351.404572 
	C459.282928,354.866608 457.433197,358.775269 455.046173,362.286713 
	C453.683167,364.291809 454.536407,365.710297 456.601990,366.553253 
	C460.539337,368.160187 464.486176,369.743866 468.440460,371.341797 
	C469.115082,369.818054 468.486420,368.770264 467.933105,367.040894 
M492.005859,374.504730 
	C489.547028,369.232239 486.937042,364.056854 482.869293,358.888733 
	C479.671539,363.784302 477.028381,367.830811 473.947296,372.547791 
	C480.586700,373.757233 486.058258,375.365570 492.005859,374.504730 
M557.175598,364.287720 
	C561.186096,364.689362 564.428894,362.323730 568.014648,361.216553 
	C569.521179,360.751404 569.956787,359.429901 569.053040,357.993011 
	C566.283813,353.589966 563.478516,349.209564 560.687256,344.820374 
	C558.525757,351.388885 557.034241,357.465302 557.175598,364.287720 
M559.334534,375.214020 
	C561.166443,378.194305 561.921936,381.808136 564.847595,385.109375 
	C566.821716,377.617615 568.597168,370.879974 570.539551,363.508789 
	C567.259033,364.551147 564.862366,365.206970 562.542786,366.070099 
	C556.302673,368.391998 556.310364,368.440033 559.334534,375.214020 
M399.292877,688.352295 
	C403.029907,686.354126 408.589844,686.619629 409.328033,680.834167 
	C409.989563,675.649475 410.271515,670.416382 410.791748,664.384033 
	C404.727844,672.505981 400.204987,680.535034 395.213623,689.302307 
	C397.079773,688.903931 397.871460,688.734985 399.292877,688.352295 
M504.641418,305.722076 
	C505.728882,307.450165 506.389099,310.252625 509.313568,308.227692 
	C513.205383,305.532959 516.946594,302.620697 521.666748,299.124756 
	C513.723022,297.847992 506.999298,296.265778 499.516174,296.059662 
	C501.378143,299.557678 502.851898,302.326355 504.641418,305.722076 
M498.370422,345.216400 
	C497.545410,343.319641 498.020813,340.926025 495.923187,339.099701 
	C492.431610,343.941742 489.090179,348.693909 486.272888,354.685028 
	C491.439941,355.730072 495.728241,357.632050 500.893951,357.790253 
	C500.024536,353.416107 499.287415,349.707458 498.370422,345.216400 
M676.793701,580.624146 
	C676.588379,575.520691 677.284302,570.323181 675.255920,565.022461 
	C670.239990,565.614136 665.645020,567.213562 660.063232,569.136841 
	C666.046082,573.447449 670.569153,578.237366 676.793701,580.624146 
M588.645081,410.762085 
	C587.189636,410.515137 585.898560,410.578308 585.889832,412.529022 
	C585.868774,417.211761 585.883057,421.894623 585.883057,426.577454 
	C586.374451,426.632782 586.865845,426.688110 587.357239,426.743408 
	C592.281250,422.304321 597.205200,417.865204 602.852295,412.774170 
	C597.531433,412.034576 593.461914,411.468933 588.645081,410.762085 
M644.365356,539.273804 
	C640.333862,539.498230 636.222656,538.430786 631.811340,539.886780 
	C632.926025,543.990295 633.295288,548.061707 636.195740,551.607361 
	C641.759644,547.701355 647.074829,543.969971 652.389954,540.238586 
	C652.282715,539.920837 652.175415,539.603149 652.068176,539.285400 
	C649.808044,539.285400 647.547974,539.285400 644.365356,539.273804 
M458.196198,427.717133 
	C464.494812,427.973297 464.138855,422.029724 466.871948,418.773499 
	C458.237274,418.375824 450.114105,419.838104 440.763733,421.652191 
	C447.166840,423.905334 452.337341,425.724731 458.196198,427.717133 
M535.526184,742.678833 
	C538.680237,738.549927 541.834290,734.421021 545.692200,729.370789 
	C539.217773,729.462036 533.917236,728.732056 528.674988,730.738892 
	C528.854309,735.273315 530.922729,738.745300 532.135864,742.459229 
	C532.686890,744.146057 533.753601,744.427185 535.526184,742.678833 
M600.485107,478.602264 
	C601.145935,479.288208 601.417542,480.416534 602.970215,480.515900 
	C604.850891,474.462982 606.008972,468.217407 607.015747,461.270966 
	C602.146667,463.334320 597.462097,464.163177 593.289978,467.113739 
	C595.749512,471.035309 597.947632,474.540192 600.485107,478.602264 
M492.350098,312.642914 
	C493.892517,317.952545 495.434937,323.262177 497.376373,329.945343 
	C500.179657,323.475494 502.382019,318.392578 504.640625,313.179840 
	C500.587830,310.592743 496.410034,309.793762 492.527039,308.542023 
	C491.098663,309.782562 491.953125,310.864197 492.350098,312.642914 
M466.162109,351.871613 
	C467.963013,357.804840 469.763916,363.738037 471.859680,370.642731 
	C475.256256,365.449036 478.062439,361.158142 481.490967,355.915558 
	C475.386932,354.922638 471.444977,351.309998 466.162109,351.871613 
M498.743591,719.134399 
	C501.378632,723.189514 503.676941,727.511902 508.023224,731.222534 
	C509.800598,724.848938 511.395874,719.128357 512.991150,713.407715 
	C512.603638,713.145203 512.216187,712.882690 511.828705,712.620117 
	C507.514069,714.770996 502.334930,714.745117 498.743591,719.134399 
M453.519836,369.790375 
	C453.660736,375.301880 454.949097,380.554565 456.503052,386.243683 
	C460.736877,382.142395 464.353394,378.639099 468.626709,374.499542 
	C463.225037,372.800446 459.131622,369.650116 453.519836,369.790375 
M546.623352,325.563263 
	C546.851318,320.114288 542.673401,317.084259 539.993774,313.078217 
	C538.042297,320.647186 536.075317,327.982971 535.330750,336.516022 
	C539.530945,332.477631 542.868896,329.268280 546.623352,325.563263 
M552.569519,339.660431 
	C553.819214,339.459595 555.335388,339.753693 555.812378,337.784607 
	C553.938354,334.256104 552.198669,330.518341 548.634644,327.208466 
	C544.629700,331.534058 540.792542,335.678375 536.197083,340.641785 
	C542.203735,340.276123 546.986084,339.985016 552.569519,339.660431 
M551.674866,731.957214 
	C552.708679,735.225220 552.177429,738.908997 554.408813,742.224060 
	C560.078735,741.273865 565.422119,739.389404 571.974304,736.413940 
	C564.854675,734.043640 559.073486,732.102051 553.277161,730.206665 
	C552.374207,729.911377 551.647156,730.199036 551.674866,731.957214 
M397.241302,491.029236 
	C395.906342,493.518463 394.594940,496.020721 393.227753,498.492096 
	C392.387238,500.011475 391.537872,501.744995 392.976013,503.083191 
	C396.066498,505.958954 399.032257,509.070190 403.624817,511.351227 
	C402.906891,503.145966 400.704163,495.963928 399.214996,487.881775 
	C398.371765,489.161438 397.946075,489.807434 397.241302,491.029236 
M583.662048,425.128510 
	C583.662048,421.096771 583.662048,417.065063 583.662048,411.654144 
	C578.109070,417.542267 573.666504,422.252991 568.632507,427.590881 
	C573.028076,428.058258 576.446594,428.459839 579.873291,428.771576 
	C581.889648,428.955048 583.544678,428.492279 583.662048,425.128510 
M386.510895,494.841949 
	C387.393158,496.207764 387.961090,497.841461 390.119751,498.778046 
	C392.515137,494.336639 394.910828,489.894653 397.477600,485.135437 
	C391.692902,484.333160 386.502991,483.950317 380.544403,484.858337 
	C382.640900,488.332550 384.418488,491.278259 386.510895,494.841949 
M620.845886,455.721344 
	C617.253845,458.260681 611.115967,457.069061 609.881409,463.020020 
	C608.977661,467.376068 607.058533,471.602692 607.615601,477.234711 
	C613.847351,469.193481 619.460754,461.950195 625.520874,454.130493 
	C623.644531,454.752930 622.559937,455.112671 620.845886,455.721344 
M670.425964,628.685242 
	C671.099976,625.509033 672.676453,622.495789 672.283386,618.525696 
	C667.046692,618.741455 662.010498,618.903259 656.833679,620.595520 
	C661.260986,624.754395 665.158630,628.415771 669.127014,632.143555 
	C669.816772,631.684265 669.694702,630.371948 670.425964,628.685242 
M501.379303,334.362335 
	C504.670593,335.435883 507.425262,338.168121 511.692352,337.895081 
	C509.902161,330.822998 508.217804,324.169128 506.261841,316.442261 
	C503.950989,321.932739 502.042633,326.439087 500.161224,330.956635 
	C499.689178,332.090057 499.521118,333.212769 501.379303,334.362335 
M626.541321,506.987427 
	C625.003418,509.042084 622.931885,510.766724 622.093445,513.533997 
	C626.217834,515.213257 629.952942,516.826965 634.359863,517.009949 
	C635.253845,510.948853 633.634460,505.404480 633.407532,498.846161 
	C630.827881,501.891296 628.903381,504.163055 626.541321,506.987427 
M545.159363,379.667511 
	C546.646423,376.687012 549.529968,374.373291 549.881409,370.063049 
	C544.195618,371.774750 539.057434,373.321564 533.549011,374.979858 
	C535.623840,379.365997 537.201965,383.252716 540.701538,386.426331 
	C542.235352,384.110260 543.507263,382.189667 545.159363,379.667511 
M372.093658,542.838867 
	C379.067017,541.255005 385.473877,538.269592 392.975067,535.442200 
	C378.351074,529.130249 375.023499,530.293884 371.608398,541.947632 
	C371.566895,542.089233 371.660034,542.270386 372.093658,542.838867 
M659.673035,616.793030 
	C663.384338,616.363647 667.095642,615.934326 671.372009,615.439575 
	C666.954407,611.121521 663.132812,607.386108 658.992554,603.339172 
	C657.920349,606.709045 656.682983,610.244507 655.686279,613.846619 
	C654.938110,616.550232 656.798828,616.885132 659.673035,616.793030 
M352.934082,610.792114 
	C353.580750,615.005737 353.998993,619.280823 356.106842,623.376892 
	C360.576050,622.233582 364.774475,620.988159 369.393311,618.756958 
	C364.373322,614.826050 359.417847,611.912170 354.384857,609.125610 
	C353.466278,608.617004 352.810669,609.013306 352.934082,610.792114 
M529.763245,361.239532 
	C528.683167,361.068512 527.725647,360.010834 526.274658,360.913910 
	C527.023743,364.654480 529.578308,367.577789 531.205933,370.925110 
	C531.958679,372.473175 533.352905,372.181366 534.674744,371.776062 
	C538.896240,370.481689 543.115051,369.178345 548.760498,367.439331 
	C541.703369,365.123810 536.077087,363.277802 529.763245,361.239532 
M506.259247,353.529602 
	C507.897675,349.969238 510.371918,346.780060 511.296143,342.670593 
	C507.498474,340.520203 503.997559,338.187134 499.150299,337.004211 
	C500.778412,343.751984 501.379425,350.086884 504.089050,356.505066 
	C504.958679,355.364990 505.441986,354.731354 506.259247,353.529602 
M475.388092,339.282654 
	C474.467133,338.016113 474.656494,336.018616 472.603577,335.177826 
	C470.068054,338.954407 467.208099,342.479736 465.689758,347.159180 
	C470.645691,349.087372 475.045532,350.799225 480.621643,352.968719 
	C478.663513,347.857819 477.150635,343.909027 475.388092,339.282654 
M382.642792,622.881775 
	C386.774689,624.814514 390.448975,627.723572 395.637665,629.111206 
	C394.116180,624.065369 392.761658,619.573242 391.214844,614.443359 
	C386.560699,616.501038 381.711365,616.643555 377.671967,620.112976 
	C379.433594,621.102905 380.723846,621.827881 382.642792,622.881775 
M579.180603,700.017639 
	C578.090698,699.948547 576.947449,699.175598 575.661621,700.531799 
	C578.359802,705.467285 581.679504,709.986328 586.024414,714.538391 
	C588.256287,710.189514 590.117432,706.562988 592.263000,702.382263 
	C587.709595,701.554932 583.818420,700.847900 579.180603,700.017639 
M646.918030,617.121277 
	C643.575562,615.412964 640.655579,612.861816 636.447205,611.623840 
	C635.097900,616.614319 633.835632,621.283020 632.327881,626.859558 
	C637.963135,624.352417 642.627808,622.285461 647.284668,620.200928 
	C649.070007,619.401611 649.052185,618.450806 646.918030,617.121277 
M440.936157,418.494171 
	C448.296539,417.439392 455.656921,416.384644 463.017303,415.329865 
	C457.834015,413.073120 452.662811,411.402252 447.425995,409.971588 
	C444.523560,409.178650 438.221222,415.495483 438.883850,418.390869 
	C438.920380,418.550659 439.794220,418.518829 440.936157,418.494171 
M415.768860,696.256409 
	C416.441498,697.614746 417.192505,698.602112 418.648224,696.999817 
	C422.280365,693.001953 426.539520,689.543945 429.797363,684.075439 
	C423.817322,685.654541 418.108612,684.524963 412.880432,686.888611 
	C412.977783,690.278625 414.572662,692.868408 415.768860,696.256409 
M528.693970,718.885498 
	C525.955505,717.479126 523.217041,716.072754 519.089050,713.952759 
	C521.401428,718.263184 522.986572,721.252502 524.606262,724.222900 
	C525.443970,725.759277 526.624023,726.816101 528.515137,726.811584 
	C533.373718,726.800049 538.232300,726.807800 543.090820,726.807800 
	C543.130432,726.435547 543.170044,726.063354 543.209656,725.691101 
	C538.593384,723.533875 533.977173,721.376587 528.693970,718.885498 
M591.572937,684.213379 
	C588.816895,686.753906 585.231934,688.341248 582.581970,691.817505 
	C586.025452,694.373230 589.140076,696.855713 593.539368,698.173096 
	C594.505737,692.281616 595.396729,686.849487 596.417847,680.623962 
	C594.473267,682.042358 593.282837,682.910645 591.572937,684.213379 
M666.926880,564.125122 
	C676.220337,561.780273 677.468872,558.430603 672.559998,548.361816 
	C668.630920,553.941284 664.790955,559.394226 660.771912,565.101501 
	C663.225037,565.764771 664.631165,564.569092 666.926880,564.125122 
M382.855835,591.420776 
	C381.098572,592.646423 379.318237,593.840454 377.588104,595.103271 
	C370.457642,600.307678 369.739807,604.194763 374.626251,612.920837 
	C377.884094,605.926697 381.012543,599.228882 384.115875,592.519470 
	C384.432953,591.833984 384.434082,591.179260 382.855835,591.420776 
M366.746643,613.518555 
	C367.923065,613.895447 368.874390,615.163635 370.651154,614.322754 
	C370.138824,610.985168 369.650421,607.582214 369.082214,604.192688 
	C368.783356,602.409790 367.984253,600.769653 365.837189,601.470276 
	C362.300873,602.624268 358.453064,603.030518 354.905426,605.460999 
	C358.300659,609.009888 362.595123,610.571167 366.746643,613.518555 
M593.131531,726.643921 
	C595.213196,725.348877 597.294922,724.053833 599.591736,722.624939 
	C587.686646,717.587341 580.335999,721.662415 581.481506,732.824280 
	C585.263000,730.825195 588.882324,728.911804 593.131531,726.643921 
M521.800842,724.290588 
	C519.873169,721.525818 518.808838,718.133911 515.619263,715.309875 
	C513.449402,721.412170 511.665985,726.884216 510.497620,733.428711 
	C514.466919,731.712708 517.491333,730.367859 520.546509,729.097229 
	C522.637451,728.227661 523.472778,726.982788 521.800842,724.290588 
M408.990479,457.286133 
	C410.204987,450.905121 407.027069,445.443848 405.545288,438.557617 
	C402.350067,443.186005 399.800995,446.943878 397.850250,451.250000 
	C401.181641,453.906158 404.911743,455.342926 408.990479,457.286133 
M660.443359,643.102661 
	C656.392578,645.404968 652.341797,647.707336 647.962341,650.196472 
	C651.086060,652.284546 654.035767,652.885986 656.799500,653.953674 
	C658.937073,654.779419 660.363770,654.207092 661.255798,652.232178 
	C662.998474,648.374084 664.668030,644.482910 666.712158,639.820007 
	C664.240295,641.104492 662.648499,641.931641 660.443359,643.102661 
M501.222321,362.510559 
	C497.292297,359.038025 492.439209,359.486176 486.359314,358.221008 
	C489.989044,364.239502 491.720154,369.455750 495.899811,373.937042 
	C497.807220,369.988739 499.454987,366.577881 501.222321,362.510559 
M430.890839,724.620850 
	C433.500122,725.937500 435.866272,727.841431 439.453979,728.406860 
	C439.609070,723.349609 438.430084,719.056213 436.910431,714.536926 
	C432.717987,716.036499 429.021851,717.661194 425.720795,720.125549 
	C426.724976,722.396912 428.701233,723.096924 430.890839,724.620850 
M649.372009,605.123962 
	C646.244934,606.366394 642.817017,606.974365 639.616943,609.545227 
	C643.686951,612.209473 647.386658,614.480469 651.722168,616.254395 
	C653.740234,611.849121 654.996765,607.556274 656.004517,603.038879 
	C653.554932,603.005615 651.919250,604.263000 649.372009,605.123962 
M396.623047,510.146790 
	C395.663696,509.585846 395.143738,508.286926 393.307739,508.453735 
	C394.603394,515.628052 397.251801,522.315491 399.262085,529.475891 
	C406.197723,518.323303 406.197723,518.323303 396.623047,510.146790 
M506.717865,740.417603 
	C506.761932,738.169312 505.564697,738.029785 503.810974,738.635437 
	C497.991333,740.645691 492.158386,742.617676 485.674194,744.828064 
	C491.007843,745.835022 495.487549,746.746948 500.085388,747.130005 
	C506.599884,747.672852 506.583771,747.866333 506.717865,740.417603 
M367.672363,622.487793 
	C364.848450,623.704163 361.632751,623.983826 358.823883,626.125366 
	C362.784576,630.255310 367.521881,632.874207 372.307037,636.146912 
	C373.153687,631.515930 372.048920,627.788513 371.898682,624.021484 
	C371.794281,621.404053 370.104736,621.761780 367.672363,622.487793 
M418.860504,433.050934 
	C418.578888,428.934296 418.782196,424.739319 417.002411,420.163147 
	C414.097351,425.086243 410.733704,428.951813 408.744690,433.840790 
	C412.093048,436.271973 415.442230,437.834839 419.025391,438.949738 
	C420.086548,437.029388 419.002136,435.468292 418.860504,433.050934 
M442.088928,716.327026 
	C441.658356,716.425232 440.846558,716.553406 440.851593,716.617493 
	C441.207886,721.159119 441.914429,725.626831 443.642212,730.131104 
	C448.008911,728.633057 452.058624,727.525818 456.081543,724.999817 
	C451.286469,721.994385 446.960571,719.283020 442.088928,716.327026 
M601.577576,460.456116 
	C602.252991,459.889648 603.640015,460.123871 603.573120,458.285736 
	C597.258423,456.371613 590.848572,454.428650 583.986084,452.348480 
	C588.848328,464.096161 590.354858,464.784515 601.577576,460.456116 
M425.702759,419.919403 
	C424.131256,419.519623 422.602386,418.726746 420.392700,419.540558 
	C421.087006,425.331787 421.101593,431.281708 422.824738,438.090179 
	C425.068665,431.746002 429.465881,427.588593 430.962158,421.735321 
	C429.181183,421.118439 427.780304,420.633179 425.702759,419.919403 
M526.911194,743.796875 
	C528.363770,744.494751 529.813477,744.637329 529.176880,742.449829 
	C528.212769,739.136963 526.833130,735.943909 525.603882,732.709839 
	C525.091003,731.360779 523.901794,731.047058 522.757263,731.463623 
	C519.475220,732.658386 516.005493,733.544067 512.888611,736.116638 
	C517.713745,738.782410 522.030029,741.167053 526.911194,743.796875 
M635.992981,649.625977 
	C632.867676,648.496521 629.740417,647.372620 626.617981,646.235291 
	C625.126526,645.692017 623.684692,645.372864 622.677979,647.057617 
	C620.960083,649.932495 619.260864,652.818542 616.821472,656.935852 
	C624.275146,654.777649 630.157776,653.095032 636.020081,651.344360 
	C636.594299,651.172913 638.087952,650.895142 635.992981,649.625977 
M426.868805,417.525421 
	C428.574402,417.527374 430.197113,419.165833 432.167297,417.741882 
	C431.456543,412.661743 431.211823,407.490082 429.384430,401.992828 
	C425.782990,406.352692 423.038696,410.499359 420.848816,414.872070 
	C422.576263,416.656281 424.541473,416.578735 426.868805,417.525421 
M545.310303,744.713501 
	C551.644653,743.343506 552.393860,740.013184 548.055359,731.147766 
	C544.178101,735.989075 540.429932,740.669189 535.997498,746.203613 
	C539.638306,745.601990 542.068298,745.200439 545.310303,744.713501 
M404.613861,700.565247 
	C405.610840,696.811218 406.607788,693.057190 407.936279,688.054688 
	C402.578033,690.070374 398.301605,691.679138 393.748016,693.392151 
	C396.116821,697.135681 399.079285,699.289185 401.565948,701.878479 
	C402.862976,703.229065 403.839569,702.894409 404.613861,700.565247 
M389.017181,465.507050 
	C388.120880,469.524628 391.510101,474.262085 397.827423,477.447449 
	C396.242737,470.754303 396.462067,464.022308 394.119080,457.018463 
	C392.255219,460.071686 390.795532,462.462830 389.017181,465.507050 
M579.615967,443.456299 
	C580.506775,440.775940 581.413818,438.100830 582.283325,435.413605 
	C583.004333,433.185516 582.178711,431.736786 579.864258,431.519257 
	C576.531616,431.205994 573.177612,431.120667 568.607727,430.871185 
	C572.895874,435.825653 574.119019,441.355408 579.615967,443.456299 
M525.745300,308.112122 
	C528.366211,307.381256 531.386536,308.493164 534.562683,305.994476 
	C530.867004,304.254364 528.957275,299.354401 524.742310,301.054291 
	C520.350159,302.825562 516.622437,306.243988 512.604187,308.942261 
	C512.758362,309.228760 512.912537,309.515228 513.066772,309.801727 
	C517.006592,309.287659 520.946411,308.773560 525.745300,308.112122 
M592.149536,717.633179 
	C595.206177,717.716125 598.092407,719.538635 601.947083,718.546082 
	C599.420410,713.948669 597.071411,709.674500 594.201233,704.452026 
	C592.148560,708.417480 590.827026,711.055908 589.426147,713.651550 
	C588.173828,715.971802 589.283447,716.987610 592.149536,717.633179 
M411.899384,439.059143 
	C410.879791,438.749359 409.984314,437.597321 408.412750,438.834442 
	C409.872650,444.041351 410.505341,449.631470 413.161438,455.307770 
	C420.534424,443.728149 420.483704,443.103088 411.899384,439.059143 
M657.655029,588.734436 
	C657.737122,586.753601 657.317322,584.804565 655.039734,584.660339 
	C651.221191,584.418640 647.448242,583.046448 642.666077,583.793579 
	C647.687256,588.048889 651.515442,592.401062 656.593018,595.685974 
	C657.985413,593.158203 657.527100,591.308472 657.655029,588.734436 
M444.753510,383.128235 
	C447.492767,384.375854 450.002686,386.237976 453.504700,386.735870 
	C452.465637,380.969330 451.516907,375.704193 450.379333,369.390961 
	C447.808960,373.258392 445.890442,376.123932 443.995880,379.005219 
	C443.143219,380.302063 442.335205,381.630585 444.753510,383.128235 
M653.349121,495.393097 
	C652.298584,491.944336 650.939880,488.664307 648.233154,485.771881 
	C644.682190,488.160492 641.479492,490.638702 638.136475,494.358673 
	C643.798096,495.115356 648.238953,497.029297 653.349121,495.393097 
M415.263367,683.229858 
	C420.117188,682.609924 424.971008,681.990051 430.480469,681.286377 
	C427.603577,677.466858 424.718384,674.818542 420.579132,672.385742 
	C419.324951,676.712830 414.781647,678.584106 415.263367,683.229858 
M388.405243,481.730682 
	C390.544617,481.455963 392.888794,482.440491 395.375580,480.664062 
	C392.245544,477.361877 389.974304,473.759338 385.949463,471.557709 
	C383.573700,474.543793 381.770416,477.512268 380.761566,481.720795 
	C383.324341,481.720795 385.432007,481.720795 388.405243,481.730682 
M365.875916,551.774963 
	C366.116577,549.970886 365.462128,549.143494 363.652802,549.944641 
	C360.680786,551.260681 357.343292,551.840515 354.457336,554.389038 
	C357.159454,557.923706 360.539795,560.377258 364.138916,562.867615 
	C366.316925,559.419922 365.404022,555.851990 365.875916,551.774963 
M517.028076,741.549622 
	C514.755371,740.826050 513.144592,738.326599 510.038635,738.994019 
	C509.849060,741.941528 507.466278,746.071899 511.186920,747.220825 
	C515.246155,748.474304 520.142517,748.550842 525.216797,746.190857 
	C522.239990,744.495056 519.953186,743.192322 517.028076,741.549622 
M381.243744,652.956787 
	C379.301636,649.999268 377.359528,647.041748 374.750305,643.068359 
	C373.902710,649.576538 373.234253,654.709106 372.448181,660.744873 
	C375.690338,659.231506 378.061371,658.101929 380.452423,657.016541 
	C382.136200,656.252136 382.767365,655.183350 381.243744,652.956787 
M361.321289,521.301819 
	C359.758057,524.456787 357.987122,527.550049 357.981842,531.985413 
	C362.621002,530.338135 367.327942,530.998901 371.526215,527.933716 
	C368.019836,525.368408 366.073181,521.588562 361.321289,521.301819 
M370.660400,653.862671 
	C371.230408,650.000854 371.800446,646.138977 372.480774,641.529785 
	C369.749054,642.479065 367.628845,643.221191 365.504761,643.952148 
	C363.538269,644.629028 362.913452,645.998779 363.772919,647.828430 
	C365.354156,651.194397 367.072723,654.495911 368.864655,658.085938 
	C370.338745,656.838989 370.524475,655.737976 370.660400,653.862671 
M647.105469,576.616943 
	C645.707703,577.618286 643.959656,578.257019 643.063354,580.420532 
	C647.716553,580.576599 652.491150,583.780884 656.080750,580.574890 
	C658.215332,578.668335 656.475037,574.446106 655.318604,570.900757 
	C652.501404,572.862305 650.090332,574.541077 647.105469,576.616943 
M644.627747,477.835022 
	C643.526550,476.181305 643.106262,473.927124 640.633423,472.983429 
	C639.490967,478.752747 637.389404,483.948364 637.420227,489.891937 
	C640.203125,488.975739 641.686890,487.098175 643.608032,485.902374 
	C646.884583,483.862854 647.110718,481.420044 644.627747,477.835022 
M366.783264,532.671814 
	C364.270752,533.684143 361.183716,532.979431 358.800903,535.311646 
	C361.364288,538.346375 363.590820,541.497253 367.300781,543.351196 
	C369.838776,539.834167 370.691711,535.989014 372.180634,531.778442 
	C370.310333,532.059814 368.905518,532.271179 366.783264,532.671814 
M437.756897,414.067535 
	C442.736420,407.461060 441.091675,403.188751 432.339478,400.716827 
	C432.606049,406.208679 433.807159,411.409882 434.930939,417.247040 
	C436.046692,416.027679 436.704132,415.309204 437.756897,414.067535 
M586.142456,400.794800 
	C586.142456,402.176270 586.142456,403.557770 586.142456,405.413544 
	C595.843018,396.102356 595.843018,396.102356 587.454590,387.187531 
	C585.730347,391.475342 586.560852,395.806549 586.142456,400.794800 
M631.012268,528.328308 
	C632.052307,525.787415 633.853088,523.498108 633.856201,520.138672 
	C630.053223,519.602173 626.843384,517.224365 622.353027,517.871521 
	C624.590332,522.609802 625.985657,527.266418 629.075928,531.770508 
	C629.924316,530.344360 630.339355,529.646729 631.012268,528.328308 
M521.891846,281.574249 
	C518.375671,278.508728 514.508423,280.238159 509.368866,280.453186 
	C514.437866,285.127167 518.615234,288.979004 523.656311,293.627258 
	C523.068848,288.869110 522.664490,285.593994 521.891846,281.574249 
M359.294067,548.754272 
	C360.923798,547.794128 363.220276,547.895020 364.239471,545.600952 
	C362.064636,542.568237 359.609802,539.819763 356.128815,537.450928 
	C354.573639,541.732788 353.358398,545.670593 353.657074,549.893188 
	C355.725433,550.654541 357.110626,549.501953 359.294067,548.754272 
M491.328918,331.940063 
	C491.485687,331.884888 491.683014,331.869629 491.787811,331.763214 
	C491.891296,331.658142 491.995331,331.384857 491.938843,331.315063 
	C488.936676,327.604706 485.356598,324.573517 481.399445,321.606781 
	C479.441895,324.355103 477.538940,326.389587 476.870544,329.490204 
	C481.557465,331.003662 486.174744,331.369537 491.328918,331.940063 
M626.495300,639.704895 
	C625.863281,641.540527 625.375549,643.139893 628.098206,643.887695 
	C631.664795,644.867188 635.133179,646.204163 639.821045,647.784058 
	C636.827820,643.318726 634.573608,639.888977 632.237915,636.515747 
	C631.607849,635.605774 631.136230,634.439514 629.740356,634.158752 
	C627.962097,635.296753 627.781189,637.444214 626.495300,639.704895 
M668.558655,578.924011 
	C665.451965,576.622742 662.345276,574.321472 658.868713,571.746216 
	C659.808777,583.466492 661.072205,584.428162 673.348816,583.334778 
	C672.416321,581.427124 670.440674,580.714050 668.558655,578.924011 
M668.562866,591.073730 
	C670.332764,589.806152 672.102722,588.538635 675.107544,586.386658 
	C669.258972,587.134521 664.448853,583.599365 660.892273,586.791870 
	C659.102966,588.397949 659.624268,592.879333 661.247986,596.260803 
	C663.697693,594.510681 665.834839,592.983826 668.562866,591.073730 
M632.175781,693.754578 
	C629.833923,691.260864 627.492065,688.767151 624.332092,685.402283 
	C624.025818,691.984497 623.776917,697.333557 623.484070,703.626343 
	C627.116882,700.312012 630.247498,697.915588 632.175781,693.754578 
M629.237549,686.440125 
	C631.174316,688.106567 632.408997,690.649658 635.282166,691.373535 
	C637.989685,688.958984 640.391235,686.400146 642.075684,682.753723 
	C637.276062,681.578369 632.997192,683.017944 628.730652,683.639709 
	C627.239258,683.856995 628.362732,685.153198 629.237549,686.440125 
M405.604248,486.090424 
	C409.126007,489.286102 412.349487,492.850952 416.594482,495.458252 
	C418.882629,493.178345 420.359833,490.992188 420.098877,487.654785 
	C415.202087,486.853912 410.590942,485.479828 405.604248,486.090424 
M483.667816,318.442413 
	C485.822021,322.778503 490.159119,324.794708 494.075684,328.594360 
	C492.164642,321.947784 490.510956,316.196198 488.688171,309.856506 
	C486.215515,312.737488 484.960205,315.237183 483.667816,318.442413 
M351.713867,593.365906 
	C350.769806,596.406494 350.846069,599.364807 352.335602,602.709290 
	C356.554535,601.409302 360.543701,600.180054 365.743164,598.577942 
	C360.639618,595.994995 356.647644,594.208130 351.713867,593.365906 
M662.701538,534.069336 
	C660.625488,536.077087 659.917480,537.853333 663.469299,539.006470 
	C665.909668,539.798706 668.133118,541.322327 671.438660,541.424377 
	C670.714539,536.968750 670.134705,532.885254 667.699951,528.597961 
	C665.981079,530.482178 664.568054,532.031189 662.701538,534.069336 
M435.022888,393.870300 
	C440.322601,393.831451 444.885529,391.433197 450.549133,389.788635 
	C447.047882,387.127197 444.133331,385.731354 440.536591,384.545197 
	C438.660553,387.507355 436.818512,390.415863 435.022888,393.870300 
M675.977356,598.256409 
	C677.046936,595.392334 676.757690,592.491577 676.538818,589.011108 
	C671.798035,591.728394 667.922791,594.610596 663.594299,598.446228 
	C668.160522,598.639648 671.733398,600.303650 675.977356,598.256409 
M588.585693,407.546051 
	C592.946960,409.257355 597.408752,409.770752 603.092102,409.320862 
	C599.985474,405.819183 598.999023,402.198059 595.260925,399.449860 
	C592.948669,402.071747 590.778259,404.532806 588.585693,407.546051 
M381.275024,665.924500 
	C381.389709,663.908325 383.202698,662.051575 381.893280,659.550720 
	C378.588440,660.898376 375.259674,661.757812 372.652954,664.693970 
	C374.453217,667.671997 375.631531,670.904358 379.092773,673.266785 
	C379.837799,670.711670 380.430634,668.678589 381.275024,665.924500 
M358.775116,634.994263 
	C359.676727,637.426147 360.038788,640.112122 362.166260,642.223694 
	C364.914948,641.380249 367.709961,640.665894 370.276031,638.172791 
	C366.055573,635.241943 362.158478,632.535706 357.314270,629.171692 
	C357.925201,631.798828 358.219116,633.062744 358.775116,634.994263 
M639.161133,575.051636 
	C639.415955,575.940857 638.925964,577.099243 640.342834,577.795349 
	C644.233704,575.503967 648.165283,573.074219 652.114746,569.471008 
	C648.906006,569.211975 646.457092,569.050049 644.015869,568.810120 
	C638.290527,568.247131 638.134521,568.408936 639.161133,575.051636 
M671.268250,610.818787 
	C671.997192,611.388794 672.370850,612.533569 673.921265,612.224548 
	C674.290283,609.176086 677.157532,605.387451 674.666077,603.131897 
	C672.088135,600.797974 667.704102,601.527344 663.764099,602.164673 
	C665.821899,605.557434 668.447388,607.853821 671.268250,610.818787 
M461.405029,737.697449 
	C464.719086,741.170593 469.368591,741.012939 473.648376,742.158325 
	C470.157074,737.659363 466.383331,733.564758 461.195770,729.447388 
	C461.195770,732.689331 461.195770,734.812988 461.405029,737.697449 
M458.272644,404.098633 
	C459.806702,405.162415 461.095123,406.728271 464.146210,406.870972 
	C460.875702,402.012543 458.829559,397.281616 455.308563,393.418854 
	C450.401825,397.801178 450.397675,398.453217 454.885559,401.704803 
	C455.817566,402.380005 456.769592,403.027649 458.272644,404.098633 
M418.192505,715.565796 
	C418.194031,711.389038 416.502838,707.705261 414.962158,703.559570 
	C412.177887,704.651123 409.441162,705.078918 406.673309,707.193359 
	C410.598938,710.180298 414.134979,712.870728 418.192505,715.565796 
M432.175385,693.809998 
	C431.557281,695.700623 430.879517,697.574158 430.332581,699.485168 
	C428.846893,704.676086 429.686310,705.856323 435.615448,706.776062 
	C436.304565,701.075806 434.670319,695.725098 433.754120,689.442505 
	C433.089355,691.283875 432.752472,692.217041 432.175385,693.809998 
M452.960754,729.601257 
	C451.036713,730.385132 449.112701,731.169006 446.670135,732.164124 
	C450.379150,735.063965 453.838043,736.789734 458.199036,737.019226 
	C458.199036,733.787537 458.199036,730.958374 458.199036,727.779785 
	C456.390900,728.415894 455.015839,728.899658 452.960754,729.601257 
M368.834290,511.932220 
	C368.456635,510.732605 368.572571,509.287415 367.199432,508.564392 
	C361.458710,515.667053 362.390839,518.950012 371.657440,522.826111 
	C370.739044,519.228271 369.896240,515.926697 368.834290,511.932220 
M498.557709,300.155701 
	C497.737793,299.194580 497.736877,297.567108 495.884979,297.125732 
	C493.913177,299.245270 492.649445,301.791656 491.896881,305.092163 
	C495.419098,306.332642 498.758942,307.508911 503.255310,309.092529 
	C501.435211,305.616364 500.161987,303.184662 498.557709,300.155701 
M413.135193,666.301941 
	C413.124969,670.566040 411.488617,674.818665 412.791168,679.437561 
	C420.589600,668.895508 420.590790,668.864990 413.484344,663.654053 
	C413.364899,664.363647 413.259827,664.987915 413.135193,666.301941 
M522.025391,343.409393 
	C520.602234,343.615234 519.039978,343.056396 517.579102,344.298828 
	C518.528076,347.214020 519.799316,349.960022 522.291809,352.768585 
	C524.690125,349.738739 526.846191,347.014862 529.380859,343.812805 
	C526.631775,343.644897 524.676270,343.525421 522.025391,343.409393 
M376.705963,496.120972 
	C370.968903,493.164185 371.832062,498.508057 369.659668,501.398193 
	C374.989288,501.398193 379.502167,501.398193 384.760559,501.398193 
	C381.888824,499.487579 379.593384,497.960388 376.705963,496.120972 
M429.066193,694.830261 
	C429.499420,693.093933 429.932648,691.357544 430.612244,688.633911 
	C426.351898,692.461304 423.428436,696.089966 420.620575,699.835693 
	C425.339264,703.705444 426.168243,703.519714 428.018280,698.409119 
	C428.355469,697.477661 428.567902,696.501160 429.066193,694.830261 
M355.779877,585.731262 
	C354.205780,584.478027 353.144897,582.449951 350.800964,582.127808 
	C349.980957,588.898315 353.662598,592.364624 361.464996,591.811218 
	C359.551727,589.759888 357.909027,587.998596 355.779877,585.731262 
M447.628174,406.729248 
	C452.262390,408.978271 457.286255,409.971252 462.275665,411.249573 
	C458.229095,407.923889 454.614319,404.064209 449.687225,402.029236 
	C448.213104,403.245758 446.939209,404.294586 447.628174,406.729248 
M353.324402,558.001343 
	C351.361389,559.925903 350.512238,562.964966 352.034332,564.569824 
	C354.247925,566.903809 357.741119,565.721802 361.968689,565.230225 
	C358.750122,562.418884 356.323914,560.299683 353.324402,558.001343 
M428.876038,715.153198 
	C430.743073,713.855530 433.195740,713.459473 434.940521,711.174805 
	C432.807495,709.555969 431.069183,707.582092 427.998810,707.787292 
	C426.452423,710.633545 425.093597,713.381836 424.744476,716.992981 
	C426.209656,716.369873 427.258759,715.923645 428.876038,715.153198 
M504.100739,712.554810 
	C504.426605,712.246582 504.752472,711.938354 505.078339,711.630127 
	C504.952301,711.550659 504.832825,711.415527 504.699280,711.399780 
	C499.630493,710.802124 494.560394,710.215454 489.201050,709.593750 
	C494.292969,715.612305 494.765533,715.706299 504.100739,712.554810 
M407.509064,700.411804 
	C407.559784,703.217834 409.215729,702.601807 410.902588,702.033569 
	C412.884094,701.366150 414.084717,700.166931 413.424530,697.975159 
	C412.683777,695.515930 411.752502,693.114075 410.684723,690.059631 
	C410.188873,691.390259 409.927673,691.985901 409.743408,692.604309 
	C409.038513,694.969727 408.358337,697.342407 407.509064,700.411804 
M643.018616,561.540710 
	C641.214722,560.916016 639.922485,558.997925 637.724915,559.342102 
	C636.067749,565.166809 638.762146,566.872864 648.990540,565.265686 
	C646.852112,563.924744 645.234375,562.910278 643.018616,561.540710 
M514.375671,264.100830 
	C510.902008,263.618988 510.632812,267.208862 510.865387,268.383118 
	C511.584595,272.014252 515.244629,272.446594 518.995239,274.155334 
	C517.258301,270.334015 515.957947,267.473267 514.375671,264.100830 
M419.342834,707.486328 
	C420.003510,709.764587 420.348694,712.162598 421.934357,714.522461 
	C423.608795,711.585815 425.071594,708.959045 424.871185,705.818237 
	C420.206512,703.679565 420.206512,703.679565 419.342834,707.486328 
M350.935120,572.541138 
	C350.856659,573.321045 350.460480,574.131165 351.486206,575.187439 
	C353.901642,573.408325 356.891663,572.285889 358.889954,568.951172 
	C355.361053,568.622681 351.718475,566.227051 350.935120,572.541138 
M379.613068,494.737610 
	C381.423645,495.762329 383.219940,496.076385 382.183167,493.192078 
	C381.340546,490.847931 380.016846,488.471985 377.635406,487.049164 
	C373.913452,490.539551 375.972107,492.561798 379.613068,494.737610 
M526.123474,287.844360 
	C525.965393,287.820099 525.771545,287.729218 525.658997,287.789703 
	C525.539124,287.854065 525.402649,288.085938 525.433105,288.203217 
	C526.574036,292.596191 525.787415,298.087402 532.226746,299.888275 
	C531.045044,295.392975 528.103577,292.114380 526.123474,287.844360 
M442.447601,395.246613 
	C441.867065,395.448822 441.127472,395.411377 440.959045,396.234528 
	C448.213776,398.649017 449.402893,398.226257 450.534668,392.555450 
	C447.943665,393.422302 445.492371,394.242462 442.447601,395.246613 
M443.637238,399.586243 
	C441.911560,399.429688 440.162964,398.802338 438.189575,399.909882 
	C439.178680,401.767548 440.761566,402.848419 442.371033,403.882599 
	C443.736847,404.760101 444.805206,404.377380 445.660797,403.040039 
	C446.802856,401.254913 445.998260,400.352203 443.637238,399.586243 
M666.299561,523.193665 
	C665.707092,522.342468 665.927673,520.852966 664.295288,520.689392 
	C662.896423,523.709839 662.003906,526.842407 661.303162,530.977051 
	C663.898499,528.521057 666.066650,526.842651 666.299561,523.193665 
M577.968994,696.978455 
	C580.090637,697.408997 582.209412,698.125916 584.676514,697.340759 
	C579.462158,692.632751 578.932373,692.582825 575.418213,696.360962 
	C576.115295,696.545898 576.720581,696.706482 577.968994,696.978455 
M513.756775,276.759979 
	C514.239075,273.158447 510.712219,274.088257 509.479462,272.528992 
	C507.723358,273.467651 506.973969,274.577545 507.337555,276.329712 
	C509.219025,277.409515 511.228912,276.823242 513.756775,276.759979 
z"/>
<path fill="#000000" opacity="1.000000" stroke="none" 
	d="
M600.380615,629.290649 
	C584.961182,656.417603 563.456482,675.162292 532.409546,680.808411 
	C472.590210,691.687012 426.350555,651.764099 416.678802,600.730042 
	C412.132812,576.742676 418.116272,554.591248 428.592255,533.156006 
	C441.095673,507.572449 457.981232,484.800171 473.983154,461.458771 
	C488.407562,440.418518 502.685089,419.316559 511.920593,395.306732 
	C512.380554,394.110931 512.769836,392.726379 514.335327,392.334869 
	C515.737183,392.926941 516.028442,394.297150 516.454895,395.505432 
	C524.133240,417.260193 536.678040,436.331512 549.474609,455.246735 
	C564.778748,477.868591 580.898804,499.966736 593.844849,524.099121 
	C604.018005,543.062561 611.586243,562.750000 611.414246,584.805603 
	C611.292236,600.468079 607.690308,615.106750 600.380615,629.290649 
M493.648163,567.914917 
	C501.339447,566.557068 509.030731,565.199280 517.409912,563.720032 
	C506.646790,550.962830 496.605560,539.061279 486.116852,526.629333 
	C483.768921,541.544128 481.525970,555.792114 479.160980,570.815063 
	C484.417633,569.768372 488.615356,568.932495 493.648163,567.914917 
M519.722412,469.441467 
	C509.737366,476.445679 499.752289,483.449890 488.672211,491.222229 
	C501.553040,495.435242 513.151184,499.228699 525.446350,503.250122 
	C524.804504,491.343658 524.246399,480.785126 523.659180,470.228180 
	C523.488159,467.153992 521.818237,468.275635 519.722412,469.441467 
M504.916931,513.362732 
	C510.510010,510.947449 516.103088,508.532166 522.955078,505.573242 
	C510.205566,501.186035 498.839264,496.988129 486.467316,493.653870 
	C486.578888,503.160675 485.702972,511.800110 487.068390,521.114685 
	C493.298096,518.410278 498.759949,516.039124 504.916931,513.362732 
M495.337067,527.548279 
	C493.737549,527.291016 492.138031,527.033752 489.565308,526.619934 
	C499.609894,538.489563 509.077484,549.677307 519.086731,561.505127 
	C521.455872,553.313416 523.491150,546.013672 524.885498,538.529968 
	C525.406189,535.735168 524.310486,534.774841 521.674805,534.164368 
	C513.106018,532.179932 504.602875,529.912231 495.337067,527.548279 
M455.565430,565.809448 
	C461.706329,567.295532 467.847229,568.781677 475.023834,570.518433 
	C469.463715,558.168823 464.468445,547.073853 458.990631,534.907043 
	C453.820160,544.702148 449.185516,553.482178 444.257263,562.818420 
	C448.421570,563.952576 451.590363,564.815552 455.565430,565.809448 
M573.157349,563.780457 
	C573.768372,561.809570 575.511841,560.137268 574.729065,557.401611 
	C563.876770,556.205872 552.979553,555.005188 541.032837,553.688843 
	C548.901611,564.242065 556.001953,573.764709 563.709656,584.101929 
	C567.032532,576.988098 569.955872,570.729675 573.157349,563.780457 
M551.447144,551.902161 
	C559.290588,552.914246 567.121582,554.070557 575.960815,554.339600 
	C573.623901,545.446594 572.147156,536.956848 568.886841,528.238892 
	C559.277283,535.732422 550.250549,542.771545 540.240601,550.577332 
	C544.660461,551.107788 547.612793,551.462158 551.447144,551.902161 
M508.961578,514.605042 
	C502.869629,517.046814 496.757812,519.447205 489.916443,523.452271 
	C501.521454,526.373718 511.943237,529.024902 522.384583,531.596619 
	C523.993103,531.992859 525.590210,531.572571 525.615295,529.546509 
	C525.702576,522.483887 525.649109,515.419556 525.649109,507.941803 
	C519.512756,509.578491 514.640259,512.076294 508.961578,514.605042 
M486.434601,612.089905 
	C481.276794,608.601501 476.118958,605.113159 469.986694,600.965698 
	C468.981903,613.466675 468.067078,624.848755 467.058441,637.397766 
	C476.349304,630.118835 484.507690,623.727112 492.684448,617.320984 
	C491.100861,614.713501 488.722046,614.004944 486.434601,612.089905 
M471.540161,556.024292 
	C473.055084,559.464966 474.570007,562.905640 476.610657,567.540344 
	C479.251251,552.920776 481.732300,539.653381 483.040405,525.743469 
	C476.705933,527.750977 471.054443,529.683594 465.315125,531.305420 
	C462.095612,532.215149 461.380951,533.692688 462.807800,536.708557 
	C465.721649,542.867310 468.441376,549.117859 471.540161,556.024292 
M534.490479,651.000122 
	C539.502563,655.719238 544.514587,660.438354 550.324341,665.908508 
	C551.385376,654.366821 552.330811,644.082031 553.370361,632.773438 
	C544.163757,636.656860 536.009827,640.096252 527.576233,643.653625 
	C529.189575,646.985413 532.086060,648.284790 534.490479,651.000122 
M529.923279,618.746948 
	C537.645508,614.804199 545.367798,610.861389 552.364075,607.289246 
	C546.026489,600.669434 540.009216,594.384155 533.790222,587.888245 
	C533.425171,588.570068 532.850098,589.221924 532.719177,589.953308 
	C531.201355,598.433411 529.716553,606.919983 528.321899,615.421021 
	C528.132019,616.578552 527.451294,618.130005 529.923279,618.746948 
M556.857788,584.715637 
	C557.781189,584.596802 558.866211,585.131653 559.937256,583.491150 
	C553.091858,574.398376 546.119141,565.136414 539.146423,555.874451 
	C538.719177,556.001892 538.291931,556.129395 537.864624,556.256836 
	C536.686035,564.075989 535.461121,571.888550 534.355652,579.718018 
	C534.002747,582.217773 535.765076,582.680298 537.794556,582.865723 
	C543.901062,583.423706 549.999573,584.068115 556.857788,584.715637 
M496.552460,633.866272 
	C495.419556,629.448059 495.975464,624.702637 493.942841,619.832642 
	C485.552673,626.383972 477.460205,632.702820 468.301147,639.854492 
	C478.682709,641.201721 487.615936,642.360962 497.208862,643.605835 
	C496.991333,640.237000 496.813690,637.485779 496.552460,633.866272 
M474.332031,574.135559 
	C465.951630,570.311462 456.954437,569.271606 448.227142,567.013611 
	C447.982483,567.557129 447.737854,568.100708 447.493225,568.644287 
	C454.206573,577.171204 460.919891,585.698120 468.228455,594.981079 
	C470.940704,587.791626 473.474701,581.559937 474.332031,574.135559 
M507.821686,593.912292 
	C504.702332,600.836426 501.582947,607.760498 498.105469,615.479492 
	C506.431549,617.292114 514.119446,619.018677 523.351013,619.650269 
	C518.628479,610.090332 514.487305,601.641663 510.264648,593.234009 
	C509.668274,592.046631 508.748871,592.110779 507.821686,593.912292 
M511.211212,579.750000 
	C513.166077,575.603333 515.120972,571.456665 517.496582,566.417542 
	C505.699646,568.611389 494.931641,570.613892 484.163635,572.616333 
	C484.127014,573.056946 484.090363,573.497498 484.053711,573.938110 
	C492.030304,577.789978 500.006866,581.641907 507.773743,585.392517 
	C509.825287,583.927063 510.160645,582.050354 511.211212,579.750000 
M499.424164,635.991089 
	C500.012665,637.978333 499.802307,640.224487 501.422180,642.452393 
	C508.437653,636.108765 515.222839,629.973389 522.955261,622.981506 
	C513.736267,621.678528 506.007568,619.481445 497.340240,618.957092 
	C498.060944,624.752930 498.707886,629.955566 499.424164,635.991089 
M529.643921,592.404358 
	C529.428955,590.499695 531.166992,588.629883 529.548035,586.290894 
	C524.415649,586.259155 519.302429,587.686890 514.138245,588.588623 
	C512.425598,588.887756 512.234314,590.355286 512.884583,591.727112 
	C516.685181,599.744812 520.544067,607.734924 524.383301,615.734314 
	C524.706848,615.657410 525.030457,615.580444 525.354065,615.503540 
	C526.753601,608.077087 528.153076,600.650696 529.643921,592.404358 
M508.279358,661.285339 
	C510.223175,664.669861 511.017029,668.677795 514.192200,672.473022 
	C517.129944,663.174561 519.839355,654.599182 522.864624,645.023865 
	C515.400085,645.634827 509.073090,646.152710 502.256226,646.710754 
	C503.681030,652.072632 505.942566,656.291687 508.279358,661.285339 
M440.239532,596.757446 
	C440.401245,601.347290 440.943878,605.877625 442.169525,611.255981 
	C450.085388,607.125610 457.459717,603.277771 466.100037,598.769348 
	C456.657043,595.600403 448.513580,592.867493 439.705902,589.911743 
	C439.925568,592.669250 440.054657,594.289734 440.239532,596.757446 
M440.582733,577.983765 
	C440.232117,579.941101 439.883728,581.898926 439.530151,583.855713 
	C439.231781,585.506836 439.606720,586.936340 441.300079,587.505859 
	C448.966187,590.084290 456.658234,592.585632 465.187469,595.393372 
	C457.488220,585.727966 450.437042,576.876099 442.790222,567.276489 
	C441.964722,571.372925 441.379944,574.274719 440.582733,577.983765 
M549.476746,539.948669 
	C554.930664,535.697632 560.384644,531.446655 566.662231,526.553650 
	C560.529968,524.848267 555.332397,523.425171 550.150696,521.946594 
	C548.794861,521.559692 547.762329,521.912720 547.325806,523.190063 
	C544.805542,530.564026 542.113892,537.896912 540.466675,546.134827 
	C544.242126,544.592529 546.316956,542.110657 549.476746,539.948669 
M574.838440,626.130859 
	C577.227844,620.017212 579.617310,613.903564 582.324646,606.976562 
	C574.295227,607.487488 567.065002,606.756165 559.120117,608.951233 
	C563.906921,616.063660 568.349365,622.664429 573.143372,629.787537 
	C573.936523,628.232300 574.303772,627.512146 574.838440,626.130859 
M582.939331,580.598022 
	C589.917236,582.971558 596.535400,586.417969 604.335022,588.160828 
	C604.652466,580.605286 604.026062,573.727966 602.231567,566.312683 
	C598.106628,569.009216 594.617432,571.201782 591.224548,573.534424 
	C588.205200,575.610291 584.300110,576.556213 582.939331,580.598022 
M452.301117,541.902710 
	C452.975494,540.000610 455.020538,538.475708 453.852631,535.680359 
	C447.000031,536.509277 440.703125,539.195740 433.523438,541.037231 
	C436.437286,547.426270 439.100006,553.264709 442.260712,560.195068 
	C445.923309,553.491333 448.920074,548.006348 452.301117,541.902710 
M529.376709,662.239502 
	C529.907410,664.825806 530.417786,667.416443 530.976440,669.996704 
	C531.314392,671.557800 531.989258,673.020142 533.904175,672.626465 
	C538.518555,671.677856 543.202820,670.849487 547.899658,667.991577 
	C541.395203,660.998657 534.846008,654.936279 527.662354,648.550293 
	C527.006348,653.536316 528.978943,657.359924 529.376709,662.239502 
M566.456848,658.095581 
	C567.976074,657.069824 568.966736,655.876160 567.770020,653.982422 
	C564.116760,648.201782 560.464233,642.420593 556.238953,635.733582 
	C555.011902,646.245117 553.614319,655.570435 553.567261,665.535156 
	C558.645996,663.665283 562.139465,660.845398 566.456848,658.095581 
M533.405701,622.774170 
	C539.886047,624.616577 546.366455,626.458984 553.469727,628.478455 
	C553.884521,621.890198 554.248169,616.113342 554.673340,609.359741 
	C546.610046,613.377930 539.652222,616.833984 532.706787,620.314758 
	C531.126343,621.106750 531.195862,621.905151 533.405701,622.774170 
M575.433838,542.161743 
	C576.768616,545.411499 576.315613,549.350525 579.253296,552.454102 
	C583.437134,547.732422 587.418030,543.239807 591.601868,538.518188 
	C585.806702,535.531372 579.441223,532.250671 572.129028,528.481995 
	C573.361816,533.466492 574.337219,537.410339 575.433838,542.161743 
M556.151611,512.648254 
	C554.462463,514.755615 551.614380,515.942810 550.691467,519.319580 
	C556.658752,520.768982 562.115295,522.933472 568.307373,523.474731 
	C568.307373,515.756653 568.307373,508.668762 568.307373,501.580933 
	C567.814453,501.243866 567.321533,500.906830 566.828613,500.569794 
	C563.436279,504.430450 560.043945,508.291107 556.151611,512.648254 
M552.467346,587.215942 
	C547.779724,587.250488 543.115234,585.395447 540.064941,586.211792 
	C544.961182,591.583435 550.241943,597.376770 555.597229,603.252014 
	C557.737061,600.590881 558.469116,597.283813 559.758423,594.259521 
	C562.445923,587.955261 562.166565,587.577942 555.376709,587.317688 
	C554.710754,587.292114 554.044495,587.277954 552.467346,587.215942 
M598.590820,565.527039 
	C599.529846,564.747253 600.743835,563.803223 598.581238,563.220337 
	C592.414917,561.558411 586.209290,560.042664 579.774414,558.407227 
	C579.774414,565.120239 579.774414,570.945618 579.774414,577.590820 
	C586.346680,573.365173 592.191406,569.607239 598.590820,565.527039 
M601.730652,592.040222 
	C595.791138,586.569702 587.753906,586.350952 579.924988,582.115906 
	C581.686157,589.925903 583.053772,596.099182 585.608032,602.697815 
	C591.164612,599.101562 596.258850,595.804565 601.730652,592.040222 
M532.392273,625.284302 
	C530.965210,625.087280 529.616760,624.021118 527.529236,625.198608 
	C527.277283,629.925781 525.636414,634.919739 526.907166,640.622375 
	C535.052063,637.632568 542.497925,634.752380 550.735657,630.724426 
	C544.151306,628.753723 538.656433,627.109131 532.392273,625.284302 
M529.394653,449.865753 
	C528.393921,454.152283 527.393127,458.438812 526.275085,463.227844 
	C532.640686,462.935699 538.325256,462.674805 545.308594,462.354279 
	C540.559937,455.012604 536.425842,448.621094 531.818542,441.497925 
	C530.874817,444.689331 530.224426,446.888733 529.394653,449.865753 
M457.991180,630.521240 
	C459.855804,632.335571 461.107330,634.770325 464.077728,636.453247 
	C465.028625,626.013489 465.943634,615.967529 466.858673,605.921570 
	C462.786469,610.220215 460.053558,615.128784 456.647980,619.515015 
	C453.482544,623.592041 453.526245,626.813171 457.991180,630.521240 
M528.356262,526.811707 
	C528.559265,528.056213 527.896667,529.467102 529.564575,531.054504 
	C534.430603,527.499939 539.364258,523.895996 544.843933,519.893188 
	C539.081482,515.876343 534.803345,511.509277 528.355713,508.721008 
	C528.355713,514.860596 528.355713,520.414185 528.356262,526.811707 
M493.035980,485.003693 
	C501.300934,479.210297 509.565887,473.416901 518.282837,467.306702 
	C512.620972,467.306702 507.813599,467.315216 503.006256,467.302521 
	C501.083344,467.297424 499.238525,467.663452 498.275970,469.468750 
	C495.701263,474.297516 493.160400,479.150665 490.824341,484.097198 
	C489.941040,485.967499 491.164673,486.021484 493.035980,485.003693 
M493.659302,593.135193 
	C492.037262,593.424683 490.347351,593.550659 488.680420,595.609558 
	C490.808960,600.794922 493.082367,606.333252 495.910065,613.221863 
	C499.811829,604.820618 503.100006,597.740540 506.782654,589.811035 
	C502.028961,591.013977 498.217194,591.978516 493.659302,593.135193 
M573.879089,604.609985 
	C575.781372,604.326660 577.807190,604.563049 580.030762,603.009094 
	C575.072449,598.503540 570.286255,594.154358 565.021667,589.370483 
	C562.378052,594.704285 560.028870,599.269470 559.287598,604.635986 
	C564.231873,604.635986 568.625427,604.635986 573.879089,604.609985 
M526.841431,449.555206 
	C527.275330,446.721436 529.082764,444.060791 528.013367,440.549194 
	C522.757812,441.883087 517.740356,443.189941 512.416443,445.486694 
	C515.647644,451.319122 519.401123,456.059692 523.808960,461.574066 
	C524.978577,457.031525 525.837891,453.694153 526.841431,449.555206 
M585.742737,610.487122 
	C585.378174,609.585388 584.706726,608.866821 584.177551,610.154358 
	C581.511230,616.642151 578.983582,623.187012 576.032166,630.661621 
	C581.570435,629.386841 586.040771,628.457153 590.452087,627.302124 
	C592.796997,626.688232 592.930054,625.047241 591.905823,623.038757 
	C589.880676,619.067505 587.949768,615.048096 585.742737,610.487122 
M517.894775,458.487640 
	C515.150208,455.041626 513.333862,450.844391 509.256897,447.596985 
	C506.484161,453.195038 503.894196,458.424103 500.826111,464.618469 
	C508.159424,464.216797 514.399963,463.874969 521.304077,463.496826 
	C519.948792,461.503204 519.117737,460.280762 517.894775,458.487640 
M496.523010,583.097534 
	C491.665771,580.931091 487.201385,577.773560 480.922333,576.512146 
	C482.385773,581.966370 484.502075,586.163269 486.746979,590.298889 
	C487.266937,591.256836 488.269745,591.548584 489.332245,591.296204 
	C494.347473,590.105164 499.357086,588.890503 505.425812,587.429749 
	C501.914398,585.709167 499.556091,584.553650 496.523010,583.097534 
M484.290131,468.764618 
	C482.506683,469.478607 480.250488,468.654053 478.445435,470.741089 
	C480.505219,476.065308 482.293243,481.644104 485.652740,487.697052 
	C489.075348,480.865814 492.060638,474.907410 495.215607,468.610291 
	C491.373962,468.610291 488.252350,468.610291 484.290131,468.764618 
M514.017883,580.345032 
	C513.520081,582.012573 512.086243,583.429504 512.722595,585.931274 
	C518.298889,584.981079 523.826538,584.039246 530.376343,582.923218 
	C526.706116,577.300903 523.699341,572.695007 520.216003,567.359070 
	C517.967590,572.035095 516.130920,575.854797 514.017883,580.345032 
M528.195740,672.949097 
	C527.952393,665.436401 525.858826,658.262024 523.803406,650.901917 
	C521.462341,658.659912 519.121277,666.417969 516.553711,674.926514 
	C521.009705,674.502930 524.485413,675.433838 528.195740,672.949097 
M523.140869,626.761597 
	C516.983398,632.217224 510.825897,637.672913 503.809540,643.889526 
	C510.102539,643.217285 515.306396,642.685730 520.503113,642.091431 
	C522.070435,641.912170 523.575317,641.318665 523.544128,639.442932 
	C523.472290,635.129944 524.765991,630.819275 523.140869,626.761597 
M468.163452,497.553131 
	C469.112854,500.603058 469.533447,503.862793 471.757446,507.170898 
	C475.478882,502.188477 478.869293,497.649292 482.735840,492.472656 
	C476.571014,491.046936 471.354431,489.840515 465.373322,488.457306 
	C466.397858,491.818848 467.158295,494.313843 468.163452,497.553131 
M530.404846,501.119171 
	C530.195557,502.030029 529.623779,503.398560 531.305420,503.118896 
	C536.460754,502.261475 541.577454,501.171936 547.512756,500.016174 
	C544.185059,494.832214 541.305603,490.346466 537.954163,485.125488 
	C535.262024,490.804321 532.955750,495.669250 530.404846,501.119171 
M452.260193,651.231079 
	C454.843140,653.072937 456.664886,656.036255 460.258148,656.948303 
	C461.240234,652.027893 463.056610,647.605469 462.876160,642.813110 
	C459.124054,642.388184 449.276489,643.180176 444.200806,644.660583 
	C447.201508,647.082581 449.472351,648.915466 452.260193,651.231079 
M533.006592,569.645935 
	C533.537598,565.169006 535.193909,560.778015 534.398132,555.994995 
	C521.943420,562.072693 521.268982,564.304810 528.420593,574.929321 
	C529.215332,576.110046 530.140503,577.202942 531.272278,578.686768 
	C531.736145,576.749023 532.121643,575.344604 532.398071,573.919006 
	C532.617676,572.786560 532.703735,571.628174 533.006592,569.645935 
M527.678528,492.644073 
	C527.953735,494.494049 528.228882,496.344055 528.590881,498.777893 
	C537.193665,482.607910 536.947205,479.498779 526.186462,470.148621 
	C526.659424,477.729340 527.098450,484.765869 527.678528,492.644073 
M494.261841,656.783081 
	C491.421051,661.381714 488.580261,665.980347 485.389496,671.145447 
	C488.478271,671.872437 490.744476,672.265259 492.919128,672.949097 
	C496.604370,674.107849 498.149017,673.068481 497.988464,669.037720 
	C497.766876,663.474731 497.932922,657.896362 497.932922,651.250549 
	C496.416840,653.503235 495.514771,654.843628 494.261841,656.783081 
M570.665527,647.871277 
	C571.000427,644.421448 571.384521,640.975342 571.646912,637.520020 
	C571.758423,636.052124 571.902771,634.035828 570.089844,633.786316 
	C566.446655,633.284790 562.813110,631.793213 558.301453,633.037781 
	C561.675354,639.806091 565.612549,645.729370 569.692627,651.665649 
	C570.987915,650.619568 570.438965,649.536438 570.665527,647.871277 
M481.044250,522.554199 
	C478.622894,518.516663 474.891266,516.032288 470.817627,513.173279 
	C467.907501,518.668091 465.311401,523.569885 462.104553,529.624878 
	C469.093079,527.077759 475.291840,526.179443 481.044250,522.554199 
M438.889038,572.786621 
	C439.208954,571.041382 440.177002,569.341003 439.075348,567.002625 
	C434.151978,568.937927 429.150757,570.590210 423.949432,573.856750 
	C428.633942,577.390808 431.677551,581.529602 436.389526,584.070618 
	C438.007202,580.478821 437.998383,576.940186 438.889038,572.786621 
M477.908417,476.733185 
	C477.332886,475.402283 477.091522,473.855438 475.123199,472.846100 
	C472.150146,476.768860 469.163239,480.704071 466.669586,485.422241 
	C472.025909,487.448730 476.959351,488.377869 482.354340,489.319214 
	C481.634247,484.772186 479.441833,481.238983 477.908417,476.733185 
M436.684021,592.233521 
	C436.617859,592.081543 436.584045,591.898254 436.476166,591.786560 
	C436.374084,591.680786 436.111481,591.555359 436.060577,591.599915 
	C432.422913,594.781921 429.959198,598.917725 427.083679,602.717651 
	C426.220367,603.858459 426.547485,604.985352 427.717102,605.685608 
	C431.058319,607.685913 434.259705,610.022217 439.011932,610.913757 
	C438.230316,604.560425 437.508881,598.696472 436.684021,592.233521 
M454.431213,608.033142 
	C450.827728,609.953064 447.224243,611.872925 443.229553,614.001221 
	C445.926178,617.317200 448.355927,619.929077 451.671173,622.301636 
	C455.386658,616.506958 458.955292,610.941284 462.835846,604.889221 
	C459.203979,604.882690 457.357910,606.828674 454.431213,608.033142 
M490.514618,648.389099 
	C491.266235,647.674561 492.759857,647.847961 493.006134,646.118530 
	C485.305695,645.055237 477.676910,644.001831 469.680878,642.897644 
	C474.599213,654.029602 476.554993,654.833130 486.260559,650.269104 
	C487.460175,649.704956 488.683777,649.191895 490.514618,648.389099 
M480.083099,500.660553 
	C478.322418,503.076904 476.589905,505.514465 474.790680,507.901794 
	C473.671295,509.387177 473.148651,510.777863 474.775360,512.261902 
	C477.515656,514.761719 480.227722,517.292419 483.499420,520.316467 
	C483.499420,512.007629 483.499420,504.784485 483.499420,496.627258 
	C482.105530,498.233643 481.290680,499.172699 480.083099,500.660553 
M539.132935,539.676331 
	C540.344971,534.898010 542.755188,530.416931 543.337097,524.341858 
	C538.648621,527.830200 534.834534,530.659424 531.031555,533.503296 
	C530.036133,534.247620 529.311890,535.151184 530.079956,536.442993 
	C532.040161,539.740356 533.464844,543.424561 537.029663,546.478210 
	C537.755371,544.111633 538.323486,542.258850 539.132935,539.676331 
M455.262421,519.296814 
	C456.606201,522.001770 457.949982,524.706726 459.541290,527.909912 
	C462.713684,522.278564 465.956085,517.614807 468.329315,511.617767 
	C462.739197,512.526733 457.835999,510.043610 453.132965,512.344543 
	C452.646912,514.968140 454.160919,516.688782 455.262421,519.296814 
M528.029297,436.392334 
	C526.749329,431.901184 524.058960,428.220551 521.281677,423.900970 
	C519.598145,427.262787 518.182312,430.046997 516.805786,432.850555 
	C515.397400,435.718933 514.027588,438.606262 512.153076,442.498047 
	C518.075806,440.191956 523.213684,439.493286 528.029297,436.392334 
M490.812347,608.087463 
	C489.491302,604.854553 488.185730,601.615173 486.841187,598.392029 
	C486.334045,597.176270 485.789337,595.422913 484.233704,595.867554 
	C480.582916,596.910889 476.496002,596.807434 472.863312,599.561401 
	C478.378571,603.262024 483.448212,606.719360 488.584717,610.074280 
	C490.016907,611.009705 491.961243,612.197388 490.812347,608.087463 
M551.946716,493.285522 
	C553.193787,489.784851 555.853699,486.814209 556.162231,482.516876 
	C550.966248,482.030548 546.208313,482.471436 540.887207,484.015869 
	C543.498718,489.100250 546.140808,493.286438 549.323364,497.056793 
	C551.019653,496.169617 551.132812,494.907227 551.946716,493.285522 
M523.653015,554.877136 
	C523.233582,556.726074 522.814148,558.574951 522.172974,561.401367 
	C526.442322,558.038818 529.809082,555.382080 533.181946,552.733154 
	C534.522034,551.680664 535.099915,550.344666 534.238953,548.802795 
	C532.420227,545.545593 530.479126,542.356689 527.976379,538.098816 
	C526.411499,544.262817 525.158691,549.197449 523.653015,554.877136 
M492.962097,653.782349 
	C493.389343,652.816406 494.723480,652.054810 493.515045,650.529480 
	C488.987488,651.449097 484.967834,653.771240 480.846344,655.818665 
	C479.462677,656.505981 478.978729,657.793579 479.492126,659.193298 
	C480.593903,662.197144 481.375610,665.394958 483.815247,668.306274 
	C486.962463,663.310669 489.784821,658.830811 492.962097,653.782349 
M448.356598,533.924072 
	C450.324585,533.157166 452.553680,533.022705 454.681000,531.254028 
	C450.903290,529.299194 447.381927,527.478760 443.862335,525.654785 
	C442.561554,524.980713 441.293915,524.706604 440.415039,526.241211 
	C438.406281,529.748657 436.021820,533.100769 435.161591,537.685547 
	C439.672028,536.425659 443.653717,535.313538 448.356598,533.924072 
M567.720276,626.528259 
	C564.573975,622.055664 561.427612,617.583069 557.853210,612.501953 
	C555.121582,628.887207 555.121277,628.889832 568.685669,630.494995 
	C568.947510,630.525940 569.244019,630.264160 569.831238,630.001892 
	C569.227478,628.997986 568.651001,628.039429 567.720276,626.528259 
M529.196655,466.688354 
	C530.412842,471.669342 534.158142,474.711212 537.713196,478.719452 
	C540.235535,474.108948 542.846680,470.427582 544.346130,465.595673 
	C539.120361,465.229614 534.411682,465.015625 529.196655,466.688354 
M480.111023,582.440430 
	C479.328400,580.832825 478.545776,579.225220 477.356628,576.782532 
	C475.173767,583.630981 473.263458,589.624268 471.204132,596.085205 
	C472.707031,595.869446 473.359192,595.827881 473.985413,595.678040 
	C484.621094,593.133911 484.620392,593.130981 480.111023,582.440430 
M547.351196,508.079132 
	C548.400513,504.165070 546.795593,502.713959 542.985168,503.498596 
	C539.453186,504.225952 535.946777,505.077423 531.066650,506.182892 
	C536.305908,510.147339 540.528809,513.342773 544.874878,516.631348 
	C546.976257,513.875793 546.442200,511.197083 547.351196,508.079132 
M576.966553,509.463257 
	C575.431091,507.064514 573.895630,504.665771 571.752075,501.317108 
	C571.752075,509.350586 571.752075,515.971436 571.752075,523.080200 
	C575.313049,520.861816 578.763184,519.640991 581.241089,516.533630 
	C579.886841,514.287354 578.614807,512.177490 576.966553,509.463257 
M459.332794,636.034973 
	C456.850037,633.490173 455.251068,630.016968 451.434235,628.379883 
	C448.494141,631.783447 445.911102,635.224548 444.292542,639.311035 
	C450.131714,639.311035 455.575745,639.311035 461.730072,639.311035 
	C460.709930,637.853699 460.248749,637.194885 459.332794,636.034973 
M500.980713,658.243896 
	C500.987213,661.565369 500.990997,664.886841 501.000732,668.208313 
	C501.020905,675.081482 503.689941,676.640442 510.837341,673.347351 
	C507.962494,667.095215 505.090179,660.848633 502.217896,654.602051 
	C501.862366,654.742554 501.506866,654.883057 501.151337,655.023560 
	C501.096832,655.842285 501.042328,656.660950 500.980713,658.243896 
M554.222107,475.285217 
	C551.929016,472.646362 550.768616,469.033752 547.289185,466.867767 
	C544.942627,471.306671 542.772888,475.411194 540.511963,479.688171 
	C545.004150,479.688171 548.796082,479.714233 552.587463,479.679779 
	C555.519958,479.653168 556.074707,478.288910 554.222107,475.285217 
M559.383911,497.679626 
	C561.864563,496.963806 564.621704,497.167938 567.262207,495.291901 
	C565.291382,491.164978 562.719727,487.577850 559.569397,483.416229 
	C557.093506,488.807953 554.997925,493.371490 552.892517,497.956451 
	C555.201355,499.176544 556.870300,497.912842 559.383911,497.679626 
M587.165039,533.040771 
	C588.531799,533.421021 589.544373,534.783325 591.634460,534.522278 
	C588.765625,529.442749 586.031555,524.601868 583.187439,519.565979 
	C579.553345,521.506165 576.295227,522.923584 573.759277,526.199707 
	C578.297485,528.514648 582.425232,530.620239 587.165039,533.040771 
M434.084656,548.601746 
	C433.328735,547.448730 433.332581,545.673828 431.295715,545.309387 
	C429.340820,548.263855 428.553741,551.686584 427.486237,554.972595 
	C426.918701,556.719604 427.233917,558.275330 429.369781,558.877014 
	C432.453003,559.745483 435.521729,560.665344 439.708862,561.888062 
	C437.586548,556.840027 435.988281,553.038452 434.084656,548.601746 
M504.768860,450.521362 
	C505.083038,449.282623 506.287537,448.249756 505.593231,446.665985 
	C502.645355,445.791138 499.745605,446.777405 496.817871,447.167847 
	C494.998810,447.410431 493.958588,448.406952 494.540314,450.217407 
	C495.779510,454.074097 496.542023,458.127808 498.927368,462.332550 
	C500.987305,458.233704 502.756317,454.713745 504.768860,450.521362 
M577.447632,584.253479 
	C573.012634,582.107056 570.902283,585.878235 567.182434,587.630310 
	C571.787598,591.932434 575.538086,595.854431 579.999695,598.932495 
	C580.367310,598.692932 580.734924,598.453369 581.102539,598.213806 
	C579.976685,593.790710 578.850830,589.367676 577.447632,584.253479 
M594.592468,600.085266 
	C592.823853,601.493774 590.547424,602.278137 589.031921,604.575684 
	C591.926514,606.507141 595.177429,607.110291 598.237671,608.158875 
	C599.780762,608.687561 601.012817,608.123657 601.360352,606.633728 
	C602.225769,602.924011 603.531006,599.245117 603.157654,594.516602 
	C600.102356,596.491211 597.636658,598.084778 594.592468,600.085266 
M511.473602,437.605133 
	C513.640625,433.127655 516.395996,428.912109 518.058105,423.628693 
	C514.259949,425.046265 511.024689,426.231232 507.807343,427.462952 
	C505.862579,428.207489 504.524811,429.634888 505.678528,431.637238 
	C507.185455,434.252716 506.605682,438.187653 510.396820,439.347656 
	C510.521149,439.385742 510.904816,438.576355 511.473602,437.605133 
M564.908264,500.532471 
	C565.005188,500.397308 565.139282,500.274231 565.188171,500.123474 
	C565.234619,499.980438 565.191833,499.808441 565.188293,499.649200 
	C560.982239,500.440033 556.760925,501.160553 552.579895,502.066833 
	C551.408997,502.320648 550.548157,503.403198 550.508545,504.649536 
	C550.406006,507.875824 548.987244,511.014252 549.603943,514.956421 
	C554.886169,509.980591 559.705139,505.441193 564.908264,500.532471 
M587.982971,557.712769 
	C592.104004,558.366516 595.984314,560.655273 600.802917,559.797485 
	C600.185486,556.553711 599.323547,553.788391 597.672791,550.713989 
	C593.140869,552.387146 588.723083,554.018188 583.442444,555.967712 
	C585.255127,556.735229 586.261963,557.161499 587.982971,557.712769 
M451.075958,526.099243 
	C452.363098,526.546814 453.486816,528.070618 455.394531,526.465881 
	C453.654236,521.876892 451.508606,517.408203 448.927399,513.001343 
	C441.641693,520.456909 441.797028,521.550171 451.075958,526.099243 
M433.610016,619.175781 
	C432.015625,620.039978 430.831635,621.163696 431.770691,623.131653 
	C433.647095,627.063965 435.343933,631.118164 438.553192,634.947388 
	C440.246002,628.555359 439.473358,622.927612 438.494690,617.343201 
	C436.509216,616.875549 435.461456,618.145142 433.610016,619.175781 
M506.576691,441.554871 
	C505.701904,438.224487 504.671906,434.964264 502.329285,431.779419 
	C499.208008,435.751617 496.956299,439.783966 495.071716,444.351807 
	C498.908142,443.118500 503.079834,445.092224 506.576691,441.554871 
M592.372437,618.009827 
	C593.230225,619.335876 593.291931,621.277100 595.488281,621.858215 
	C597.447205,618.815369 598.723206,615.531067 599.395935,611.288391 
	C595.583130,610.134399 591.879150,609.013367 587.266541,607.617249 
	C589.161438,611.487549 590.603821,614.433472 592.372437,618.009827 
M471.071228,650.400269 
	C469.450653,648.687866 468.855988,645.983337 466.007446,644.925232 
	C464.493378,649.375366 463.444794,653.533813 463.647461,658.376526 
	C467.411865,657.285889 470.951447,657.210205 473.725433,654.379150 
	C472.916718,653.136963 472.206909,652.046692 471.071228,650.400269 
M574.926270,566.718750 
	C572.689026,571.746338 570.451843,576.773926 568.018066,582.243225 
	C576.981140,581.303833 579.078064,575.913757 575.931763,564.178223 
	C575.645874,564.912292 575.408508,565.521912 574.926270,566.718750 
M582.242676,640.794373 
	C587.745483,639.741028 587.896667,634.688721 590.906128,630.316711 
	C585.449951,631.018250 581.348999,631.614502 577.222961,634.269104 
	C578.857178,636.460754 580.312927,638.413086 582.242676,640.794373 
M445.478760,631.863770 
	C450.491699,624.078186 450.403168,623.628479 442.553894,618.322632 
	C442.553894,624.067200 442.553894,629.605896 442.553894,636.097839 
	C443.803741,634.311523 444.462097,633.370605 445.478760,631.863770 
M464.863098,495.747040 
	C464.337433,494.258606 464.340179,492.522400 462.941498,491.394440 
	C455.539246,499.445801 456.203369,501.609650 467.668488,505.649323 
	C466.758545,502.396912 465.927155,499.425232 464.863098,495.747040 
M476.746948,659.806519 
	C472.685608,656.736694 469.767090,660.846436 466.182861,661.076965 
	C470.264313,664.619507 474.557831,667.096375 480.314819,668.502563 
	C479.037903,665.316895 478.059448,662.875916 476.746948,659.806519 
M574.622559,651.349854 
	C582.398193,643.721313 582.411011,642.027710 574.522461,637.409607 
	C574.139709,640.274170 573.546082,643.049561 573.472900,645.838623 
	C573.422302,647.768494 572.118347,649.988647 574.622559,651.349854 
M422.365662,580.299805 
	C422.408813,587.389404 425.114838,588.761230 433.486206,585.802673 
	C430.787689,583.488403 428.174255,581.198242 425.502625,578.978088 
	C424.302032,577.980347 422.926544,576.830139 422.365662,580.299805 
M424.827240,564.243774 
	C424.499390,565.946594 423.556396,567.620850 424.651306,569.692017 
	C428.693268,568.128174 432.852356,566.990662 437.144257,563.936707 
	C434.013397,563.118347 431.668304,562.510742 429.326263,561.891541 
	C427.489838,561.406006 425.678497,560.960144 424.827240,564.243774 
M491.603485,464.630737 
	C492.673096,464.402649 493.829071,463.884766 492.546814,462.821411 
	C490.435852,461.070801 488.846710,458.607025 485.734131,457.383514 
	C483.936432,460.353546 481.477051,462.734314 480.568787,467.104797 
	C484.288940,465.039581 487.536407,464.303650 491.603485,464.630737 
M588.363647,551.512512 
	C589.599609,551.028870 590.832886,550.538391 592.071838,550.062683 
	C597.563171,547.954163 597.800110,546.966675 594.017883,542.441040 
	C590.797485,545.651062 587.569702,548.868408 584.307007,552.120544 
	C585.648376,552.925476 586.607849,551.811707 588.363647,551.512512 
M431.043518,592.890137 
	C431.620850,591.955383 432.790955,591.318359 432.456116,589.400146 
	C429.588654,590.656738 425.712585,588.387512 423.790558,591.480957 
	C422.261780,593.941528 423.223511,597.145935 425.078796,600.371216 
	C427.171997,597.750977 428.908081,595.577820 431.043518,592.890137 
M455.974823,508.750153 
	C458.702576,508.750153 461.430328,508.750153 465.376831,508.750153 
	C461.634155,505.753754 458.737335,503.818970 455.072144,502.212830 
	C453.848846,504.171021 452.091217,505.632446 452.073151,508.350372 
	C453.266510,508.496979 454.224213,508.614624 455.974823,508.750153 
M429.031921,616.695557 
	C432.579071,618.597473 433.891632,615.366516 436.462280,613.886169 
	C433.117432,611.736938 430.223999,610.027527 426.190918,608.778259 
	C427.242645,611.792542 428.001007,613.966064 429.031921,616.695557 
M508.900452,419.440674 
	C508.225922,420.994141 506.660217,422.252228 507.048248,424.548126 
	C510.589691,423.571899 513.762634,422.636963 517.427734,420.454224 
	C514.132812,419.547607 512.413879,416.001801 508.900452,419.440674 
M494.430573,459.283173 
	C493.910339,456.060333 492.892944,453.026337 491.262146,450.073547 
	C486.980743,454.431580 487.562500,456.211639 494.430573,459.283173 
M515.954712,412.625183 
	C515.412048,411.711182 515.361572,410.341400 513.735657,410.294159 
	C510.423950,414.908142 514.314270,415.365234 517.791016,417.164368 
	C517.046509,415.247253 516.642700,414.207397 515.954712,412.625183 
z"/>
</svg>